<?xml version="1.0" encoding="utf-8" standalone="no"?>
<!DOCTYPE svg PUBLIC "-//W3C//DTD SVG 1.1//EN"
  "http://www.w3.org/Graphics/SVG/1.1/DTD/svg11.dtd">
<svg xmlns:xlink="http://www.w3.org/1999/xlink" width="1082.97406pt" height="594.216pt" viewBox="0 0 1082.97406 594.216" xmlns="http://www.w3.org/2000/svg" version="1.1">
 <metadata>
  <rdf:RDF xmlns:dc="http://purl.org/dc/elements/1.1/" xmlns:cc="http://creativecommons.org/ns#" xmlns:rdf="http://www.w3.org/1999/02/22-rdf-syntax-ns#">
   <cc:Work>
    <dc:type rdf:resource="http://purl.org/dc/dcmitype/StillImage"/>
    <dc:date>2026-05-07T09:03:36.754054</dc:date>
    <dc:format>image/svg+xml</dc:format>
    <dc:creator>
     <cc:Agent>
      <dc:title>Matplotlib v3.10.8, https://matplotlib.org/</dc:title>
     </cc:Agent>
    </dc:creator>
   </cc:Work>
  </rdf:RDF>
 </metadata>
 <defs>
  <style type="text/css">*{stroke-linejoin: round; stroke-linecap: butt}</style>
 </defs>
 <g id="figure_1">
  <g id="patch_1">
   <path d="M 0 594.216 
L 1082.97406 594.216 
L 1082.97406 0 
L 0 0 
z
" style="fill: #ffffff"/>
  </g>
  <g id="axes_1">
   <g id="patch_2">
    <path d="M 7.2 242.496 
L 821.936842 242.496 
L 821.936842 104.688 
L 7.2 104.688 
z
" style="fill: #ffffff"/>
   </g>
   <g id="patch_3">
    <path d="M 7.2 113.8752 
L 176.936842 113.8752 
L 176.936842 104.688 
L 7.2 104.688 
z
" clip-path="url(#pcee181b20b)" style="fill: #2c6fb7; opacity: 0.35"/>
   </g>
   <g id="patch_4">
    <path d="M 7.2 132.2496 
L 346.673684 132.2496 
L 346.673684 113.8752 
L 7.2 113.8752 
z
" clip-path="url(#pcee181b20b)" style="fill: #2c6fb7; opacity: 0.35"/>
   </g>
   <g id="patch_5">
    <path d="M 7.2 159.8112 
L 516.410526 159.8112 
L 516.410526 132.2496 
L 7.2 132.2496 
z
" clip-path="url(#pcee181b20b)" style="fill: #2c6fb7; opacity: 0.35"/>
   </g>
   <g id="patch_6">
    <path d="M 7.2 196.56 
L 686.147368 196.56 
L 686.147368 159.8112 
L 7.2 159.8112 
z
" clip-path="url(#pcee181b20b)" style="fill: #2c6fb7; opacity: 0.35"/>
   </g>
   <g id="patch_7">
    <path d="M 7.2 242.496 
L 821.936842 242.496 
L 821.936842 198.39744 
L 7.2 198.39744 
z
" clip-path="url(#pcee181b20b)" style="fill: #0b3c8c"/>
   </g>
   <g id="patch_8">
    <path d="M 7.2 198.39744 
L 821.936842 198.39744 
L 821.936842 196.56 
L 7.2 196.56 
z
" clip-path="url(#pcee181b20b)" style="fill: #178a2f; opacity: 0.9"/>
   </g>
   <g id="matplotlib.axis_1"/>
   <g id="matplotlib.axis_2"/>
   <g id="text_1">
    <!-- Initially predicted = 25.0 GB -->
    <g transform="translate(283.033421 94.688) scale(0.18 -0.18)">
     <defs>
      <path id="DejaVuSerif-49" d="M 1581 331 
L 2175 331 
L 2175 0 
L 353 0 
L 353 331 
L 947 331 
L 947 4331 
L 353 4331 
L 353 4666 
L 2175 4666 
L 2175 4331 
L 1581 4331 
L 1581 331 
z
" transform="scale(0.015625)"/>
      <path id="DejaVuSerif-6e" d="M 263 0 
L 263 331 
L 781 331 
L 781 2988 
L 231 2988 
L 231 3322 
L 1356 3322 
L 1356 2731 
Q 1516 3069 1770 3241 
Q 2025 3413 2363 3413 
Q 2913 3413 3172 3097 
Q 3431 2781 3431 2113 
L 3431 331 
L 3944 331 
L 3944 0 
L 2356 0 
L 2356 331 
L 2853 331 
L 2853 1931 
Q 2853 2541 2703 2767 
Q 2553 2994 2175 2994 
Q 1775 2994 1565 2701 
Q 1356 2409 1356 1850 
L 1356 331 
L 1856 331 
L 1856 0 
L 263 0 
z
" transform="scale(0.015625)"/>
      <path id="DejaVuSerif-69" d="M 622 4353 
Q 622 4497 726 4603 
Q 831 4709 978 4709 
Q 1122 4709 1226 4603 
Q 1331 4497 1331 4353 
Q 1331 4206 1228 4103 
Q 1125 4000 978 4000 
Q 831 4000 726 4103 
Q 622 4206 622 4353 
z
M 1356 331 
L 1900 331 
L 1900 0 
L 231 0 
L 231 331 
L 781 331 
L 781 2988 
L 231 2988 
L 231 3322 
L 1356 3322 
L 1356 331 
z
" transform="scale(0.015625)"/>
      <path id="DejaVuSerif-74" d="M 691 2988 
L 184 2988 
L 184 3322 
L 691 3322 
L 691 4353 
L 1269 4353 
L 1269 3322 
L 2350 3322 
L 2350 2988 
L 1269 2988 
L 1269 878 
Q 1269 456 1350 337 
Q 1431 219 1650 219 
Q 1875 219 1978 351 
Q 2081 484 2088 781 
L 2522 781 
Q 2497 328 2275 118 
Q 2053 -91 1600 -91 
Q 1103 -91 897 129 
Q 691 350 691 878 
L 691 2988 
z
" transform="scale(0.015625)"/>
      <path id="DejaVuSerif-61" d="M 2547 1044 
L 2547 1747 
L 1806 1747 
Q 1378 1747 1168 1562 
Q 959 1378 959 997 
Q 959 650 1171 447 
Q 1384 244 1747 244 
Q 2106 244 2326 466 
Q 2547 688 2547 1044 
z
M 3122 2075 
L 3122 331 
L 3634 331 
L 3634 0 
L 2547 0 
L 2547 359 
Q 2356 128 2106 18 
Q 1856 -91 1522 -91 
Q 969 -91 644 203 
Q 319 497 319 997 
Q 319 1513 691 1797 
Q 1063 2081 1741 2081 
L 2547 2081 
L 2547 2309 
Q 2547 2688 2317 2895 
Q 2088 3103 1672 3103 
Q 1328 3103 1125 2947 
Q 922 2791 872 2484 
L 575 2484 
L 575 3156 
Q 875 3284 1158 3348 
Q 1441 3413 1709 3413 
Q 2400 3413 2761 3070 
Q 3122 2728 3122 2075 
z
" transform="scale(0.015625)"/>
      <path id="DejaVuSerif-6c" d="M 1313 331 
L 1856 331 
L 1856 0 
L 184 0 
L 184 331 
L 738 331 
L 738 4531 
L 184 4531 
L 184 4863 
L 1313 4863 
L 1313 331 
z
" transform="scale(0.015625)"/>
      <path id="DejaVuSerif-79" d="M 1381 -609 
L 1600 -56 
L 359 2988 
L -19 2988 
L -19 3322 
L 1509 3322 
L 1509 2988 
L 978 2988 
L 1913 703 
L 2847 2988 
L 2350 2988 
L 2350 3322 
L 3597 3322 
L 3597 2988 
L 3225 2988 
L 1703 -750 
Q 1547 -1138 1356 -1280 
Q 1166 -1422 819 -1422 
Q 672 -1422 517 -1397 
Q 363 -1372 206 -1325 
L 206 -691 
L 500 -691 
Q 519 -903 608 -995 
Q 697 -1088 884 -1088 
Q 1056 -1088 1161 -992 
Q 1266 -897 1381 -609 
z
" transform="scale(0.015625)"/>
      <path id="DejaVuSerif-20" transform="scale(0.015625)"/>
      <path id="DejaVuSerif-70" d="M 1313 1825 
L 1313 1497 
Q 1313 897 1542 583 
Q 1772 269 2209 269 
Q 2650 269 2876 622 
Q 3103 975 3103 1663 
Q 3103 2353 2876 2703 
Q 2650 3053 2209 3053 
Q 1772 3053 1542 2737 
Q 1313 2422 1313 1825 
z
M 738 2988 
L 184 2988 
L 184 3322 
L 1313 3322 
L 1313 2803 
Q 1481 3116 1742 3264 
Q 2003 3413 2388 3413 
Q 3000 3413 3387 2928 
Q 3775 2444 3775 1663 
Q 3775 881 3387 395 
Q 3000 -91 2388 -91 
Q 2003 -91 1742 57 
Q 1481 206 1313 519 
L 1313 -997 
L 1856 -997 
L 1856 -1331 
L 184 -1331 
L 184 -997 
L 738 -997 
L 738 2988 
z
" transform="scale(0.015625)"/>
      <path id="DejaVuSerif-72" d="M 3059 3328 
L 3059 2497 
L 2728 2497 
Q 2713 2744 2591 2866 
Q 2469 2988 2234 2988 
Q 1809 2988 1582 2694 
Q 1356 2400 1356 1850 
L 1356 331 
L 2022 331 
L 2022 0 
L 263 0 
L 263 331 
L 781 331 
L 781 2994 
L 231 2994 
L 231 3322 
L 1356 3322 
L 1356 2731 
Q 1525 3078 1790 3245 
Q 2056 3413 2438 3413 
Q 2578 3413 2733 3391 
Q 2888 3369 3059 3328 
z
" transform="scale(0.015625)"/>
      <path id="DejaVuSerif-65" d="M 3469 1600 
L 991 1600 
L 991 1575 
Q 991 903 1244 561 
Q 1497 219 1991 219 
Q 2369 219 2611 417 
Q 2853 616 2950 1006 
L 3413 1006 
Q 3275 459 2904 184 
Q 2534 -91 1931 -91 
Q 1203 -91 761 389 
Q 319 869 319 1663 
Q 319 2450 753 2931 
Q 1188 3413 1894 3413 
Q 2647 3413 3050 2948 
Q 3453 2484 3469 1600 
z
M 2791 1931 
Q 2772 2513 2545 2808 
Q 2319 3103 1894 3103 
Q 1497 3103 1269 2806 
Q 1041 2509 991 1931 
L 2791 1931 
z
" transform="scale(0.015625)"/>
      <path id="DejaVuSerif-64" d="M 3359 331 
L 3909 331 
L 3909 0 
L 2784 0 
L 2784 519 
Q 2616 206 2355 57 
Q 2094 -91 1709 -91 
Q 1097 -91 708 395 
Q 319 881 319 1663 
Q 319 2444 706 2928 
Q 1094 3413 1709 3413 
Q 2094 3413 2355 3264 
Q 2616 3116 2784 2803 
L 2784 4531 
L 2241 4531 
L 2241 4863 
L 3359 4863 
L 3359 331 
z
M 2784 1497 
L 2784 1825 
Q 2784 2422 2554 2737 
Q 2325 3053 1888 3053 
Q 1444 3053 1217 2703 
Q 991 2353 991 1663 
Q 991 975 1217 622 
Q 1444 269 1888 269 
Q 2325 269 2554 583 
Q 2784 897 2784 1497 
z
" transform="scale(0.015625)"/>
      <path id="DejaVuSerif-63" d="M 3291 997 
Q 3169 466 2822 187 
Q 2475 -91 1925 -91 
Q 1200 -91 759 389 
Q 319 869 319 1663 
Q 319 2459 759 2936 
Q 1200 3413 1925 3413 
Q 2241 3413 2553 3339 
Q 2866 3266 3181 3116 
L 3181 2266 
L 2847 2266 
Q 2781 2703 2561 2903 
Q 2341 3103 1931 3103 
Q 1466 3103 1228 2742 
Q 991 2381 991 1663 
Q 991 944 1227 581 
Q 1463 219 1931 219 
Q 2303 219 2525 412 
Q 2747 606 2828 997 
L 3291 997 
z
" transform="scale(0.015625)"/>
      <path id="DejaVuSerif-3d" d="M 678 2894 
L 4684 2894 
L 4684 2394 
L 678 2394 
L 678 2894 
z
M 678 1619 
L 4684 1619 
L 4684 1119 
L 678 1119 
L 678 1619 
z
" transform="scale(0.015625)"/>
      <path id="DejaVuSerif-32" d="M 819 3553 
L 469 3553 
L 469 4384 
Q 803 4563 1142 4656 
Q 1481 4750 1806 4750 
Q 2534 4750 2956 4397 
Q 3378 4044 3378 3438 
Q 3378 2753 2422 1800 
Q 2347 1728 2309 1691 
L 1131 513 
L 3078 513 
L 3078 1088 
L 3444 1088 
L 3444 0 
L 434 0 
L 434 341 
L 1850 1753 
Q 2319 2222 2519 2614 
Q 2719 3006 2719 3438 
Q 2719 3909 2473 4175 
Q 2228 4441 1797 4441 
Q 1350 4441 1106 4219 
Q 863 3997 819 3553 
z
" transform="scale(0.015625)"/>
      <path id="DejaVuSerif-35" d="M 3219 4666 
L 3219 4153 
L 1081 4153 
L 1081 2816 
Q 1244 2928 1461 2984 
Q 1678 3041 1947 3041 
Q 2703 3041 3140 2622 
Q 3578 2203 3578 1478 
Q 3578 738 3136 323 
Q 2694 -91 1894 -91 
Q 1572 -91 1234 -12 
Q 897 66 544 225 
L 544 1131 
L 897 1131 
Q 925 688 1179 453 
Q 1434 219 1894 219 
Q 2388 219 2653 544 
Q 2919 869 2919 1478 
Q 2919 2084 2655 2407 
Q 2391 2731 1894 2731 
Q 1613 2731 1398 2631 
Q 1184 2531 1019 2322 
L 750 2322 
L 750 4666 
L 3219 4666 
z
" transform="scale(0.015625)"/>
      <path id="DejaVuSerif-2e" d="M 603 325 
Q 603 500 722 622 
Q 841 744 1019 744 
Q 1191 744 1312 622 
Q 1434 500 1434 325 
Q 1434 153 1312 31 
Q 1191 -91 1019 -91 
Q 841 -91 722 29 
Q 603 150 603 325 
z
" transform="scale(0.015625)"/>
      <path id="DejaVuSerif-30" d="M 2034 219 
Q 2513 219 2750 744 
Q 2988 1269 2988 2328 
Q 2988 3391 2750 3916 
Q 2513 4441 2034 4441 
Q 1556 4441 1318 3916 
Q 1081 3391 1081 2328 
Q 1081 1269 1318 744 
Q 1556 219 2034 219 
z
M 2034 -91 
Q 1275 -91 848 546 
Q 422 1184 422 2328 
Q 422 3475 848 4112 
Q 1275 4750 2034 4750 
Q 2797 4750 3222 4112 
Q 3647 3475 3647 2328 
Q 3647 1184 3222 546 
Q 2797 -91 2034 -91 
z
" transform="scale(0.015625)"/>
      <path id="DejaVuSerif-47" d="M 4097 3272 
Q 3988 3856 3641 4136 
Q 3294 4416 2675 4416 
Q 1869 4416 1472 3897 
Q 1075 3378 1075 2328 
Q 1075 1300 1484 772 
Q 1894 244 2688 244 
Q 3041 244 3362 331 
Q 3684 419 3975 594 
L 3975 1797 
L 3097 1797 
L 3097 2131 
L 4609 2131 
L 4609 391 
Q 4194 150 3714 29 
Q 3234 -91 2688 -91 
Q 1631 -91 995 570 
Q 359 1231 359 2328 
Q 359 3434 996 4092 
Q 1634 4750 2713 4750 
Q 3113 4750 3539 4658 
Q 3966 4566 4447 4378 
L 4447 3272 
L 4097 3272 
z
" transform="scale(0.015625)"/>
      <path id="DejaVuSerif-42" d="M 1581 331 
L 2516 331 
Q 3078 331 3337 575 
Q 3597 819 3597 1350 
Q 3597 1878 3339 2120 
Q 3081 2363 2516 2363 
L 1581 2363 
L 1581 331 
z
M 1581 2694 
L 2375 2694 
Q 2888 2694 3123 2891 
Q 3359 3088 3359 3513 
Q 3359 3941 3123 4136 
Q 2888 4331 2375 4331 
L 1581 4331 
L 1581 2694 
z
M 353 0 
L 353 331 
L 947 331 
L 947 4331 
L 353 4331 
L 353 4666 
L 2656 4666 
Q 3363 4666 3720 4377 
Q 4078 4088 4078 3513 
Q 4078 3097 3829 2850 
Q 3581 2603 3103 2547 
Q 3697 2472 4005 2167 
Q 4313 1863 4313 1350 
Q 4313 656 3875 328 
Q 3438 0 2509 0 
L 353 0 
z
" transform="scale(0.015625)"/>
     </defs>
     <use xlink:href="#DejaVuSerif-49"/>
     <use xlink:href="#DejaVuSerif-6e" transform="translate(39.501953 0)"/>
     <use xlink:href="#DejaVuSerif-69" transform="translate(103.90625 0)"/>
     <use xlink:href="#DejaVuSerif-74" transform="translate(135.888672 0)"/>
     <use xlink:href="#DejaVuSerif-69" transform="translate(176.074219 0)"/>
     <use xlink:href="#DejaVuSerif-61" transform="translate(208.056641 0)"/>
     <use xlink:href="#DejaVuSerif-6c" transform="translate(267.675781 0)"/>
     <use xlink:href="#DejaVuSerif-6c" transform="translate(299.658203 0)"/>
     <use xlink:href="#DejaVuSerif-79" transform="translate(331.640625 0)"/>
     <use xlink:href="#DejaVuSerif-20" transform="translate(388.134766 0)"/>
     <use xlink:href="#DejaVuSerif-70" transform="translate(419.921875 0)"/>
     <use xlink:href="#DejaVuSerif-72" transform="translate(483.935547 0)"/>
     <use xlink:href="#DejaVuSerif-65" transform="translate(531.738281 0)"/>
     <use xlink:href="#DejaVuSerif-64" transform="translate(590.917969 0)"/>
     <use xlink:href="#DejaVuSerif-69" transform="translate(654.931641 0)"/>
     <use xlink:href="#DejaVuSerif-63" transform="translate(686.914062 0)"/>
     <use xlink:href="#DejaVuSerif-74" transform="translate(742.919922 0)"/>
     <use xlink:href="#DejaVuSerif-65" transform="translate(783.105469 0)"/>
     <use xlink:href="#DejaVuSerif-64" transform="translate(842.285156 0)"/>
     <use xlink:href="#DejaVuSerif-20" transform="translate(906.298828 0)"/>
     <use xlink:href="#DejaVuSerif-3d" transform="translate(938.085938 0)"/>
     <use xlink:href="#DejaVuSerif-20" transform="translate(1021.875 0)"/>
     <use xlink:href="#DejaVuSerif-32" transform="translate(1053.662109 0)"/>
     <use xlink:href="#DejaVuSerif-35" transform="translate(1117.285156 0)"/>
     <use xlink:href="#DejaVuSerif-2e" transform="translate(1180.908203 0)"/>
     <use xlink:href="#DejaVuSerif-30" transform="translate(1212.695312 0)"/>
     <use xlink:href="#DejaVuSerif-20" transform="translate(1276.318359 0)"/>
     <use xlink:href="#DejaVuSerif-47" transform="translate(1308.105469 0)"/>
     <use xlink:href="#DejaVuSerif-42" transform="translate(1387.988281 0)"/>
    </g>
   </g>
  </g>
  <g id="axes_2">
   <g id="patch_9">
    <path d="M 839.936842 242.496 
L 887.305263 242.496 
L 887.305263 104.688 
L 839.936842 104.688 
z
" style="fill: #ffffff"/>
   </g>
   <g id="matplotlib.axis_3"/>
   <g id="matplotlib.axis_4"/>
   <g id="text_2">
    <!-- = -->
    <g transform="translate(850.213553 182.422) scale(0.32 -0.32)">
     <use xlink:href="#DejaVuSerif-3d"/>
    </g>
   </g>
  </g>
  <g id="axes_3">
   <g id="patch_10">
    <path d="M 952.731203 242.496 
L 1075.77406 242.496 
L 1075.77406 104.688 
L 952.731203 104.688 
z
" style="fill: #ffffff"/>
   </g>
   <g id="patch_11">
    <path d="M 952.731203 242.496 
L 1067.933976 242.496 
L 1067.933976 127.293228 
L 952.731203 127.293228 
z
" clip-path="url(#p11a5c2a1ab)" style="fill: #2c6fb7; opacity: 0.25"/>
   </g>
   <g id="patch_12">
    <path d="M 952.731203 242.496 
L 1029.533051 242.496 
L 1029.533051 165.694152 
L 952.731203 165.694152 
z
" clip-path="url(#p11a5c2a1ab)" style="fill: #178a2f; opacity: 0.9"/>
   </g>
   <g id="patch_13">
    <path d="M 952.731203 242.496 
L 1027.981339 242.496 
L 1027.981339 167.245864 
L 952.731203 167.245864 
z
" clip-path="url(#p11a5c2a1ab)" style="fill: #0b3c8c"/>
   </g>
   <g id="matplotlib.axis_5"/>
   <g id="matplotlib.axis_6"/>
   <g id="text_3">
    <!-- Total resource cost -->
    <g transform="translate(901.514373 89.4015) scale(0.18 -0.18)">
     <defs>
      <path id="DejaVuSerif-54" d="M 1222 0 
L 1222 331 
L 1819 331 
L 1819 4294 
L 447 4294 
L 447 3566 
L 63 3566 
L 63 4666 
L 4206 4666 
L 4206 3566 
L 3822 3566 
L 3822 4294 
L 2450 4294 
L 2450 331 
L 3047 331 
L 3047 0 
L 1222 0 
z
" transform="scale(0.015625)"/>
      <path id="DejaVuSerif-6f" d="M 1925 219 
Q 2388 219 2623 584 
Q 2859 950 2859 1663 
Q 2859 2375 2623 2739 
Q 2388 3103 1925 3103 
Q 1463 3103 1227 2739 
Q 991 2375 991 1663 
Q 991 950 1228 584 
Q 1466 219 1925 219 
z
M 1925 -91 
Q 1200 -91 759 389 
Q 319 869 319 1663 
Q 319 2456 758 2934 
Q 1197 3413 1925 3413 
Q 2653 3413 3092 2934 
Q 3531 2456 3531 1663 
Q 3531 869 3092 389 
Q 2653 -91 1925 -91 
z
" transform="scale(0.015625)"/>
      <path id="DejaVuSerif-73" d="M 359 184 
L 359 959 
L 691 959 
Q 703 588 923 403 
Q 1144 219 1575 219 
Q 1963 219 2166 364 
Q 2369 509 2369 788 
Q 2369 1006 2220 1140 
Q 2072 1275 1594 1428 
L 1178 1569 
Q 750 1706 558 1912 
Q 366 2119 366 2438 
Q 366 2894 700 3153 
Q 1034 3413 1625 3413 
Q 1888 3413 2178 3344 
Q 2469 3275 2778 3144 
L 2778 2419 
L 2447 2419 
Q 2434 2741 2221 2922 
Q 2009 3103 1644 3103 
Q 1281 3103 1095 2975 
Q 909 2847 909 2591 
Q 909 2381 1050 2254 
Q 1191 2128 1613 1997 
L 2069 1856 
Q 2541 1709 2748 1489 
Q 2956 1269 2956 922 
Q 2956 450 2595 179 
Q 2234 -91 1600 -91 
Q 1278 -91 972 -22 
Q 666 47 359 184 
z
" transform="scale(0.015625)"/>
      <path id="DejaVuSerif-75" d="M 2266 3322 
L 3341 3322 
L 3341 331 
L 3884 331 
L 3884 0 
L 2766 0 
L 2766 588 
Q 2606 256 2353 82 
Q 2100 -91 1766 -91 
Q 1213 -91 952 223 
Q 691 538 691 1209 
L 691 2988 
L 172 2988 
L 172 3322 
L 1269 3322 
L 1269 1388 
Q 1269 781 1417 556 
Q 1566 331 1947 331 
Q 2347 331 2556 625 
Q 2766 919 2766 1478 
L 2766 2988 
L 2266 2988 
L 2266 3322 
z
" transform="scale(0.015625)"/>
     </defs>
     <use xlink:href="#DejaVuSerif-54"/>
     <use xlink:href="#DejaVuSerif-6f" transform="translate(58.949219 0)"/>
     <use xlink:href="#DejaVuSerif-74" transform="translate(119.154297 0)"/>
     <use xlink:href="#DejaVuSerif-61" transform="translate(159.339844 0)"/>
     <use xlink:href="#DejaVuSerif-6c" transform="translate(218.958984 0)"/>
     <use xlink:href="#DejaVuSerif-20" transform="translate(250.941406 0)"/>
     <use xlink:href="#DejaVuSerif-72" transform="translate(282.728516 0)"/>
     <use xlink:href="#DejaVuSerif-65" transform="translate(330.53125 0)"/>
     <use xlink:href="#DejaVuSerif-73" transform="translate(389.710938 0)"/>
     <use xlink:href="#DejaVuSerif-6f" transform="translate(441.029297 0)"/>
     <use xlink:href="#DejaVuSerif-75" transform="translate(501.234375 0)"/>
     <use xlink:href="#DejaVuSerif-72" transform="translate(565.638672 0)"/>
     <use xlink:href="#DejaVuSerif-63" transform="translate(613.441406 0)"/>
     <use xlink:href="#DejaVuSerif-65" transform="translate(669.447266 0)"/>
     <use xlink:href="#DejaVuSerif-20" transform="translate(728.626953 0)"/>
     <use xlink:href="#DejaVuSerif-63" transform="translate(760.414062 0)"/>
     <use xlink:href="#DejaVuSerif-6f" transform="translate(816.419922 0)"/>
     <use xlink:href="#DejaVuSerif-73" transform="translate(876.625 0)"/>
     <use xlink:href="#DejaVuSerif-74" transform="translate(927.943359 0)"/>
    </g>
    <!-- 8,062 GB·h -->
    <g transform="translate(973.60156 109.557563) scale(0.18 -0.18)">
     <defs>
      <path id="DejaVuSerif-38" d="M 2981 1275 
Q 2981 1775 2732 2051 
Q 2484 2328 2034 2328 
Q 1584 2328 1336 2051 
Q 1088 1775 1088 1275 
Q 1088 772 1336 495 
Q 1584 219 2034 219 
Q 2484 219 2732 495 
Q 2981 772 2981 1275 
z
M 2853 3541 
Q 2853 3966 2637 4203 
Q 2422 4441 2034 4441 
Q 1650 4441 1433 4203 
Q 1216 3966 1216 3541 
Q 1216 3113 1433 2875 
Q 1650 2638 2034 2638 
Q 2422 2638 2637 2875 
Q 2853 3113 2853 3541 
z
M 2516 2484 
Q 3047 2413 3344 2092 
Q 3641 1772 3641 1275 
Q 3641 619 3225 264 
Q 2809 -91 2034 -91 
Q 1263 -91 845 264 
Q 428 619 428 1275 
Q 428 1772 725 2092 
Q 1022 2413 1556 2484 
Q 1084 2569 832 2842 
Q 581 3116 581 3541 
Q 581 4103 968 4426 
Q 1356 4750 2034 4750 
Q 2713 4750 3100 4426 
Q 3488 4103 3488 3541 
Q 3488 3116 3236 2842 
Q 2984 2569 2516 2484 
z
" transform="scale(0.015625)"/>
      <path id="DejaVuSerif-2c" d="M 231 -622 
Q 525 -406 662 -114 
Q 800 178 800 594 
L 800 709 
L 1416 709 
Q 1391 175 1164 -208 
Q 938 -591 481 -872 
L 231 -622 
z
" transform="scale(0.015625)"/>
      <path id="DejaVuSerif-36" d="M 2094 219 
Q 2534 219 2771 542 
Q 3009 866 3009 1472 
Q 3009 2078 2771 2401 
Q 2534 2725 2094 2725 
Q 1647 2725 1412 2412 
Q 1178 2100 1178 1509 
Q 1178 888 1415 553 
Q 1653 219 2094 219 
z
M 1075 2569 
Q 1288 2803 1556 2918 
Q 1825 3034 2163 3034 
Q 2859 3034 3264 2615 
Q 3669 2197 3669 1472 
Q 3669 763 3233 336 
Q 2797 -91 2069 -91 
Q 1278 -91 853 498 
Q 428 1088 428 2181 
Q 428 3406 931 4078 
Q 1434 4750 2350 4750 
Q 2597 4750 2869 4703 
Q 3141 4656 3425 4563 
L 3425 3794 
L 3072 3794 
Q 3034 4109 2831 4275 
Q 2628 4441 2284 4441 
Q 1678 4441 1381 3981 
Q 1084 3522 1075 2569 
z
" transform="scale(0.015625)"/>
      <path id="DejaVuSerif-b7" d="M 594 2222 
Q 594 2397 714 2517 
Q 834 2638 1013 2638 
Q 1184 2638 1306 2516 
Q 1428 2394 1428 2222 
Q 1428 2047 1306 1926 
Q 1184 1806 1013 1806 
Q 834 1806 714 1925 
Q 594 2044 594 2222 
z
" transform="scale(0.015625)"/>
      <path id="DejaVuSerif-68" d="M 263 0 
L 263 331 
L 781 331 
L 781 4531 
L 231 4531 
L 231 4863 
L 1356 4863 
L 1356 2731 
Q 1516 3069 1770 3241 
Q 2025 3413 2363 3413 
Q 2913 3413 3172 3097 
Q 3431 2781 3431 2113 
L 3431 331 
L 3944 331 
L 3944 0 
L 2356 0 
L 2356 331 
L 2853 331 
L 2853 1931 
Q 2853 2541 2704 2764 
Q 2556 2988 2175 2988 
Q 1775 2988 1565 2697 
Q 1356 2406 1356 1850 
L 1356 331 
L 1856 331 
L 1856 0 
L 263 0 
z
" transform="scale(0.015625)"/>
     </defs>
     <use xlink:href="#DejaVuSerif-38"/>
     <use xlink:href="#DejaVuSerif-2c" transform="translate(63.623047 0)"/>
     <use xlink:href="#DejaVuSerif-30" transform="translate(95.410156 0)"/>
     <use xlink:href="#DejaVuSerif-36" transform="translate(159.033203 0)"/>
     <use xlink:href="#DejaVuSerif-32" transform="translate(222.65625 0)"/>
     <use xlink:href="#DejaVuSerif-20" transform="translate(286.279297 0)"/>
     <use xlink:href="#DejaVuSerif-47" transform="translate(318.066406 0)"/>
     <use xlink:href="#DejaVuSerif-42" transform="translate(397.949219 0)"/>
     <use xlink:href="#DejaVuSerif-b7" transform="translate(471.435547 0)"/>
     <use xlink:href="#DejaVuSerif-68" transform="translate(503.222656 0)"/>
    </g>
   </g>
  </g>
  <g id="axes_4">
   <g id="patch_14">
    <path d="M 7.2 414.756 
L 821.936842 414.756 
L 821.936842 276.948 
L 7.2 276.948 
z
" style="fill: #ffffff"/>
   </g>
   <g id="patch_15">
    <path d="M 7.2 333.90864 
L 754.042105 333.90864 
L 754.042105 293.48496 
L 7.2 293.48496 
z
" clip-path="url(#pfd630fef78)" style="fill: #2c6fb7; opacity: 0.35"/>
   </g>
   <g id="patch_16">
    <path d="M 7.2 414.756 
L 821.936842 414.756 
L 821.936842 370.65744 
L 7.2 370.65744 
z
" clip-path="url(#pfd630fef78)" style="fill: #0b3c8c"/>
   </g>
   <g id="patch_17">
    <path d="M 7.2 370.65744 
L 821.936842 370.65744 
L 821.936842 333.90864 
L 7.2 333.90864 
z
" clip-path="url(#pfd630fef78)" style="fill: #178a2f; opacity: 0.9"/>
   </g>
   <g id="matplotlib.axis_7"/>
   <g id="matplotlib.axis_8"/>
   <g id="text_4">
    <!-- Initially predicted = 110.0 GB -->
    <g transform="translate(277.307171 266.948) scale(0.18 -0.18)">
     <defs>
      <path id="DejaVuSerif-31" d="M 909 0 
L 909 331 
L 1722 331 
L 1722 4213 
L 781 3603 
L 781 4013 
L 1919 4750 
L 2350 4750 
L 2350 331 
L 3163 331 
L 3163 0 
L 909 0 
z
" transform="scale(0.015625)"/>
     </defs>
     <use xlink:href="#DejaVuSerif-49"/>
     <use xlink:href="#DejaVuSerif-6e" transform="translate(39.501953 0)"/>
     <use xlink:href="#DejaVuSerif-69" transform="translate(103.90625 0)"/>
     <use xlink:href="#DejaVuSerif-74" transform="translate(135.888672 0)"/>
     <use xlink:href="#DejaVuSerif-69" transform="translate(176.074219 0)"/>
     <use xlink:href="#DejaVuSerif-61" transform="translate(208.056641 0)"/>
     <use xlink:href="#DejaVuSerif-6c" transform="translate(267.675781 0)"/>
     <use xlink:href="#DejaVuSerif-6c" transform="translate(299.658203 0)"/>
     <use xlink:href="#DejaVuSerif-79" transform="translate(331.640625 0)"/>
     <use xlink:href="#DejaVuSerif-20" transform="translate(388.134766 0)"/>
     <use xlink:href="#DejaVuSerif-70" transform="translate(419.921875 0)"/>
     <use xlink:href="#DejaVuSerif-72" transform="translate(483.935547 0)"/>
     <use xlink:href="#DejaVuSerif-65" transform="translate(531.738281 0)"/>
     <use xlink:href="#DejaVuSerif-64" transform="translate(590.917969 0)"/>
     <use xlink:href="#DejaVuSerif-69" transform="translate(654.931641 0)"/>
     <use xlink:href="#DejaVuSerif-63" transform="translate(686.914062 0)"/>
     <use xlink:href="#DejaVuSerif-74" transform="translate(742.919922 0)"/>
     <use xlink:href="#DejaVuSerif-65" transform="translate(783.105469 0)"/>
     <use xlink:href="#DejaVuSerif-64" transform="translate(842.285156 0)"/>
     <use xlink:href="#DejaVuSerif-20" transform="translate(906.298828 0)"/>
     <use xlink:href="#DejaVuSerif-3d" transform="translate(938.085938 0)"/>
     <use xlink:href="#DejaVuSerif-20" transform="translate(1021.875 0)"/>
     <use xlink:href="#DejaVuSerif-31" transform="translate(1053.662109 0)"/>
     <use xlink:href="#DejaVuSerif-31" transform="translate(1117.285156 0)"/>
     <use xlink:href="#DejaVuSerif-30" transform="translate(1180.908203 0)"/>
     <use xlink:href="#DejaVuSerif-2e" transform="translate(1244.53125 0)"/>
     <use xlink:href="#DejaVuSerif-30" transform="translate(1276.318359 0)"/>
     <use xlink:href="#DejaVuSerif-20" transform="translate(1339.941406 0)"/>
     <use xlink:href="#DejaVuSerif-47" transform="translate(1371.728516 0)"/>
     <use xlink:href="#DejaVuSerif-42" transform="translate(1451.611328 0)"/>
    </g>
   </g>
  </g>
  <g id="axes_5">
   <g id="patch_18">
    <path d="M 839.936842 414.756 
L 887.305263 414.756 
L 887.305263 276.948 
L 839.936842 276.948 
z
" style="fill: #ffffff"/>
   </g>
   <g id="matplotlib.axis_9"/>
   <g id="matplotlib.axis_10"/>
   <g id="text_5">
    <!-- = -->
    <g transform="translate(850.213553 354.682) scale(0.32 -0.32)">
     <use xlink:href="#DejaVuSerif-3d"/>
    </g>
   </g>
  </g>
  <g id="axes_6">
   <g id="patch_19">
    <path d="M 952.731203 414.756 
L 1075.77406 414.756 
L 1075.77406 276.948 
L 952.731203 276.948 
z
" style="fill: #ffffff"/>
   </g>
   <g id="patch_20">
    <path d="M 952.731203 414.756 
L 1075.77406 414.756 
L 1075.77406 291.713143 
L 952.731203 291.713143 
z
" clip-path="url(#p5794a2ef63)" style="fill: #2c6fb7; opacity: 0.25"/>
   </g>
   <g id="patch_21">
    <path d="M 952.731203 414.756 
L 1054.620369 414.756 
L 1054.620369 312.866834 
L 952.731203 312.866834 
z
" clip-path="url(#p5794a2ef63)" style="fill: #178a2f; opacity: 0.9"/>
   </g>
   <g id="patch_22">
    <path d="M 952.731203 414.756 
L 1027.981339 414.756 
L 1027.981339 339.505864 
L 952.731203 339.505864 
z
" clip-path="url(#p5794a2ef63)" style="fill: #0b3c8c"/>
   </g>
   <g id="matplotlib.axis_11"/>
   <g id="matplotlib.axis_12"/>
   <g id="text_6">
    <!-- Total resource cost -->
    <g transform="translate(901.514373 261.6615) scale(0.18 -0.18)">
     <use xlink:href="#DejaVuSerif-54"/>
     <use xlink:href="#DejaVuSerif-6f" transform="translate(58.949219 0)"/>
     <use xlink:href="#DejaVuSerif-74" transform="translate(119.154297 0)"/>
     <use xlink:href="#DejaVuSerif-61" transform="translate(159.339844 0)"/>
     <use xlink:href="#DejaVuSerif-6c" transform="translate(218.958984 0)"/>
     <use xlink:href="#DejaVuSerif-20" transform="translate(250.941406 0)"/>
     <use xlink:href="#DejaVuSerif-72" transform="translate(282.728516 0)"/>
     <use xlink:href="#DejaVuSerif-65" transform="translate(330.53125 0)"/>
     <use xlink:href="#DejaVuSerif-73" transform="translate(389.710938 0)"/>
     <use xlink:href="#DejaVuSerif-6f" transform="translate(441.029297 0)"/>
     <use xlink:href="#DejaVuSerif-75" transform="translate(501.234375 0)"/>
     <use xlink:href="#DejaVuSerif-72" transform="translate(565.638672 0)"/>
     <use xlink:href="#DejaVuSerif-63" transform="translate(613.441406 0)"/>
     <use xlink:href="#DejaVuSerif-65" transform="translate(669.447266 0)"/>
     <use xlink:href="#DejaVuSerif-20" transform="translate(728.626953 0)"/>
     <use xlink:href="#DejaVuSerif-63" transform="translate(760.414062 0)"/>
     <use xlink:href="#DejaVuSerif-6f" transform="translate(816.419922 0)"/>
     <use xlink:href="#DejaVuSerif-73" transform="translate(876.625 0)"/>
     <use xlink:href="#DejaVuSerif-74" transform="translate(927.943359 0)"/>
    </g>
    <!-- 10,042 GB·h -->
    <g transform="translate(962.14906 281.817563) scale(0.18 -0.18)">
     <defs>
      <path id="DejaVuSerif-34" d="M 2234 1581 
L 2234 4063 
L 641 1581 
L 2234 1581 
z
M 3609 0 
L 1484 0 
L 1484 331 
L 2234 331 
L 2234 1247 
L 197 1247 
L 197 1588 
L 2241 4750 
L 2859 4750 
L 2859 1581 
L 3750 1581 
L 3750 1247 
L 2859 1247 
L 2859 331 
L 3609 331 
L 3609 0 
z
" transform="scale(0.015625)"/>
     </defs>
     <use xlink:href="#DejaVuSerif-31"/>
     <use xlink:href="#DejaVuSerif-30" transform="translate(63.623047 0)"/>
     <use xlink:href="#DejaVuSerif-2c" transform="translate(127.246094 0)"/>
     <use xlink:href="#DejaVuSerif-30" transform="translate(159.033203 0)"/>
     <use xlink:href="#DejaVuSerif-34" transform="translate(222.65625 0)"/>
     <use xlink:href="#DejaVuSerif-32" transform="translate(286.279297 0)"/>
     <use xlink:href="#DejaVuSerif-20" transform="translate(349.902344 0)"/>
     <use xlink:href="#DejaVuSerif-47" transform="translate(381.689453 0)"/>
     <use xlink:href="#DejaVuSerif-42" transform="translate(461.572266 0)"/>
     <use xlink:href="#DejaVuSerif-b7" transform="translate(535.058594 0)"/>
     <use xlink:href="#DejaVuSerif-68" transform="translate(566.845703 0)"/>
    </g>
   </g>
  </g>
  <g id="axes_7">
   <g id="patch_23">
    <path d="M 7.2 587.016 
L 821.936842 587.016 
L 821.936842 449.208 
L 7.2 449.208 
z
" style="fill: #ffffff"/>
   </g>
   <g id="patch_24">
    <path d="M 7.2 587.016 
L 821.936842 587.016 
L 821.936842 542.91744 
L 7.2 542.91744 
z
" clip-path="url(#p96fbb6b646)" style="fill: #0b3c8c"/>
   </g>
   <g id="patch_25">
    <path d="M 7.2 542.91744 
L 821.936842 542.91744 
L 821.936842 528.21792 
L 7.2 528.21792 
z
" clip-path="url(#p96fbb6b646)" style="fill: #178a2f; opacity: 0.9"/>
   </g>
   <g id="matplotlib.axis_13"/>
   <g id="matplotlib.axis_14"/>
   <g id="text_7">
    <!-- Initially predicted = 160.0 GB -->
    <g transform="translate(277.307171 439.208) scale(0.18 -0.18)">
     <use xlink:href="#DejaVuSerif-49"/>
     <use xlink:href="#DejaVuSerif-6e" transform="translate(39.501953 0)"/>
     <use xlink:href="#DejaVuSerif-69" transform="translate(103.90625 0)"/>
     <use xlink:href="#DejaVuSerif-74" transform="translate(135.888672 0)"/>
     <use xlink:href="#DejaVuSerif-69" transform="translate(176.074219 0)"/>
     <use xlink:href="#DejaVuSerif-61" transform="translate(208.056641 0)"/>
     <use xlink:href="#DejaVuSerif-6c" transform="translate(267.675781 0)"/>
     <use xlink:href="#DejaVuSerif-6c" transform="translate(299.658203 0)"/>
     <use xlink:href="#DejaVuSerif-79" transform="translate(331.640625 0)"/>
     <use xlink:href="#DejaVuSerif-20" transform="translate(388.134766 0)"/>
     <use xlink:href="#DejaVuSerif-70" transform="translate(419.921875 0)"/>
     <use xlink:href="#DejaVuSerif-72" transform="translate(483.935547 0)"/>
     <use xlink:href="#DejaVuSerif-65" transform="translate(531.738281 0)"/>
     <use xlink:href="#DejaVuSerif-64" transform="translate(590.917969 0)"/>
     <use xlink:href="#DejaVuSerif-69" transform="translate(654.931641 0)"/>
     <use xlink:href="#DejaVuSerif-63" transform="translate(686.914062 0)"/>
     <use xlink:href="#DejaVuSerif-74" transform="translate(742.919922 0)"/>
     <use xlink:href="#DejaVuSerif-65" transform="translate(783.105469 0)"/>
     <use xlink:href="#DejaVuSerif-64" transform="translate(842.285156 0)"/>
     <use xlink:href="#DejaVuSerif-20" transform="translate(906.298828 0)"/>
     <use xlink:href="#DejaVuSerif-3d" transform="translate(938.085938 0)"/>
     <use xlink:href="#DejaVuSerif-20" transform="translate(1021.875 0)"/>
     <use xlink:href="#DejaVuSerif-31" transform="translate(1053.662109 0)"/>
     <use xlink:href="#DejaVuSerif-36" transform="translate(1117.285156 0)"/>
     <use xlink:href="#DejaVuSerif-30" transform="translate(1180.908203 0)"/>
     <use xlink:href="#DejaVuSerif-2e" transform="translate(1244.53125 0)"/>
     <use xlink:href="#DejaVuSerif-30" transform="translate(1276.318359 0)"/>
     <use xlink:href="#DejaVuSerif-20" transform="translate(1339.941406 0)"/>
     <use xlink:href="#DejaVuSerif-47" transform="translate(1371.728516 0)"/>
     <use xlink:href="#DejaVuSerif-42" transform="translate(1451.611328 0)"/>
    </g>
   </g>
  </g>
  <g id="axes_8">
   <g id="patch_26">
    <path d="M 839.936842 587.016 
L 887.305263 587.016 
L 887.305263 449.208 
L 839.936842 449.208 
z
" style="fill: #ffffff"/>
   </g>
   <g id="matplotlib.axis_15"/>
   <g id="matplotlib.axis_16"/>
   <g id="text_8">
    <!-- = -->
    <g transform="translate(850.213553 526.942) scale(0.32 -0.32)">
     <use xlink:href="#DejaVuSerif-3d"/>
    </g>
   </g>
  </g>
  <g id="axes_9">
   <g id="patch_27">
    <path d="M 952.731203 587.016 
L 1075.77406 587.016 
L 1075.77406 449.208 
L 952.731203 449.208 
z
" style="fill: #ffffff"/>
   </g>
   <g id="patch_28">
    <path d="M 952.731203 587.016 
L 1039.622575 587.016 
L 1039.622575 500.124628 
L 952.731203 500.124628 
z
" clip-path="url(#pc3e84e1ecf)" style="fill: #2c6fb7; opacity: 0.25"/>
   </g>
   <g id="patch_29">
    <path d="M 952.731203 587.016 
L 1039.622575 587.016 
L 1039.622575 500.124628 
L 952.731203 500.124628 
z
" clip-path="url(#pc3e84e1ecf)" style="fill: #178a2f; opacity: 0.9"/>
   </g>
   <g id="patch_30">
    <path d="M 952.731203 587.016 
L 1027.981339 587.016 
L 1027.981339 511.765864 
L 952.731203 511.765864 
z
" clip-path="url(#pc3e84e1ecf)" style="fill: #0b3c8c"/>
   </g>
   <g id="matplotlib.axis_17"/>
   <g id="matplotlib.axis_18"/>
   <g id="text_9">
    <!-- Total resource cost -->
    <g transform="translate(901.514373 433.9215) scale(0.18 -0.18)">
     <use xlink:href="#DejaVuSerif-54"/>
     <use xlink:href="#DejaVuSerif-6f" transform="translate(58.949219 0)"/>
     <use xlink:href="#DejaVuSerif-74" transform="translate(119.154297 0)"/>
     <use xlink:href="#DejaVuSerif-61" transform="translate(159.339844 0)"/>
     <use xlink:href="#DejaVuSerif-6c" transform="translate(218.958984 0)"/>
     <use xlink:href="#DejaVuSerif-20" transform="translate(250.941406 0)"/>
     <use xlink:href="#DejaVuSerif-72" transform="translate(282.728516 0)"/>
     <use xlink:href="#DejaVuSerif-65" transform="translate(330.53125 0)"/>
     <use xlink:href="#DejaVuSerif-73" transform="translate(389.710938 0)"/>
     <use xlink:href="#DejaVuSerif-6f" transform="translate(441.029297 0)"/>
     <use xlink:href="#DejaVuSerif-75" transform="translate(501.234375 0)"/>
     <use xlink:href="#DejaVuSerif-72" transform="translate(565.638672 0)"/>
     <use xlink:href="#DejaVuSerif-63" transform="translate(613.441406 0)"/>
     <use xlink:href="#DejaVuSerif-65" transform="translate(669.447266 0)"/>
     <use xlink:href="#DejaVuSerif-20" transform="translate(728.626953 0)"/>
     <use xlink:href="#DejaVuSerif-63" transform="translate(760.414062 0)"/>
     <use xlink:href="#DejaVuSerif-6f" transform="translate(816.419922 0)"/>
     <use xlink:href="#DejaVuSerif-73" transform="translate(876.625 0)"/>
     <use xlink:href="#DejaVuSerif-74" transform="translate(927.943359 0)"/>
    </g>
    <!-- 2,000 GB·h -->
    <g transform="translate(973.60156 454.077562) scale(0.18 -0.18)">
     <use xlink:href="#DejaVuSerif-32"/>
     <use xlink:href="#DejaVuSerif-2c" transform="translate(63.623047 0)"/>
     <use xlink:href="#DejaVuSerif-30" transform="translate(95.410156 0)"/>
     <use xlink:href="#DejaVuSerif-30" transform="translate(159.033203 0)"/>
     <use xlink:href="#DejaVuSerif-30" transform="translate(222.65625 0)"/>
     <use xlink:href="#DejaVuSerif-20" transform="translate(286.279297 0)"/>
     <use xlink:href="#DejaVuSerif-47" transform="translate(318.066406 0)"/>
     <use xlink:href="#DejaVuSerif-42" transform="translate(397.949219 0)"/>
     <use xlink:href="#DejaVuSerif-b7" transform="translate(471.435547 0)"/>
     <use xlink:href="#DejaVuSerif-68" transform="translate(503.222656 0)"/>
    </g>
   </g>
  </g>
  <g id="legend_1">
   <g id="patch_31">
    <path d="M 206.007187 40.154906 
L 234.807187 40.154906 
L 234.807187 27.554906 
L 206.007187 27.554906 
z
" style="fill: #0b3c8c"/>
   </g>
   <g id="text_10">
    <!-- Actual memory required -->
    <g transform="translate(249.207187 28.077187) scale(0.18 -0.18)">
     <defs>
      <path id="DejaVuSerif-41" d="M 1281 1691 
L 2994 1691 
L 2138 3909 
L 1281 1691 
z
M -38 0 
L -38 331 
L 372 331 
L 2034 4666 
L 2559 4666 
L 4225 331 
L 4684 331 
L 4684 0 
L 2988 0 
L 2988 331 
L 3506 331 
L 3116 1356 
L 1153 1356 
L 763 331 
L 1275 331 
L 1275 0 
L -38 0 
z
" transform="scale(0.015625)"/>
      <path id="DejaVuSerif-6d" d="M 3316 2675 
Q 3481 3041 3739 3227 
Q 3997 3413 4341 3413 
Q 4863 3413 5119 3089 
Q 5375 2766 5375 2113 
L 5375 331 
L 5894 331 
L 5894 0 
L 4300 0 
L 4300 331 
L 4800 331 
L 4800 2047 
Q 4800 2556 4650 2772 
Q 4500 2988 4153 2988 
Q 3769 2988 3567 2697 
Q 3366 2406 3366 1850 
L 3366 331 
L 3866 331 
L 3866 0 
L 2291 0 
L 2291 331 
L 2791 331 
L 2791 2069 
Q 2791 2566 2641 2777 
Q 2491 2988 2144 2988 
Q 1759 2988 1557 2697 
Q 1356 2406 1356 1850 
L 1356 331 
L 1856 331 
L 1856 0 
L 263 0 
L 263 331 
L 781 331 
L 781 2994 
L 231 2994 
L 231 3322 
L 1356 3322 
L 1356 2731 
Q 1516 3063 1762 3238 
Q 2009 3413 2322 3413 
Q 2709 3413 2968 3220 
Q 3228 3028 3316 2675 
z
" transform="scale(0.015625)"/>
      <path id="DejaVuSerif-71" d="M 3359 2988 
L 3359 -997 
L 3909 -997 
L 3909 -1331 
L 2241 -1331 
L 2241 -997 
L 2784 -997 
L 2784 519 
Q 2616 206 2355 57 
Q 2094 -91 1709 -91 
Q 1097 -91 708 395 
Q 319 881 319 1663 
Q 319 2444 706 2928 
Q 1094 3413 1709 3413 
Q 2094 3413 2355 3264 
Q 2616 3116 2784 2803 
L 2784 3322 
L 3909 3322 
L 3909 2988 
L 3359 2988 
z
M 2784 1825 
Q 2784 2422 2554 2737 
Q 2325 3053 1888 3053 
Q 1444 3053 1217 2703 
Q 991 2353 991 1663 
Q 991 975 1217 622 
Q 1444 269 1888 269 
Q 2325 269 2554 583 
Q 2784 897 2784 1497 
L 2784 1825 
z
" transform="scale(0.015625)"/>
     </defs>
     <use xlink:href="#DejaVuSerif-41"/>
     <use xlink:href="#DejaVuSerif-63" transform="translate(72.216797 0)"/>
     <use xlink:href="#DejaVuSerif-74" transform="translate(128.222656 0)"/>
     <use xlink:href="#DejaVuSerif-75" transform="translate(168.408203 0)"/>
     <use xlink:href="#DejaVuSerif-61" transform="translate(232.8125 0)"/>
     <use xlink:href="#DejaVuSerif-6c" transform="translate(292.431641 0)"/>
     <use xlink:href="#DejaVuSerif-20" transform="translate(324.414062 0)"/>
     <use xlink:href="#DejaVuSerif-6d" transform="translate(356.201172 0)"/>
     <use xlink:href="#DejaVuSerif-65" transform="translate(451.025391 0)"/>
     <use xlink:href="#DejaVuSerif-6d" transform="translate(510.205078 0)"/>
     <use xlink:href="#DejaVuSerif-6f" transform="translate(605.029297 0)"/>
     <use xlink:href="#DejaVuSerif-72" transform="translate(665.234375 0)"/>
     <use xlink:href="#DejaVuSerif-79" transform="translate(713.037109 0)"/>
     <use xlink:href="#DejaVuSerif-20" transform="translate(769.53125 0)"/>
     <use xlink:href="#DejaVuSerif-72" transform="translate(801.318359 0)"/>
     <use xlink:href="#DejaVuSerif-65" transform="translate(849.121094 0)"/>
     <use xlink:href="#DejaVuSerif-71" transform="translate(908.300781 0)"/>
     <use xlink:href="#DejaVuSerif-75" transform="translate(972.314453 0)"/>
     <use xlink:href="#DejaVuSerif-69" transform="translate(1036.71875 0)"/>
     <use xlink:href="#DejaVuSerif-72" transform="translate(1068.701172 0)"/>
     <use xlink:href="#DejaVuSerif-65" transform="translate(1116.503906 0)"/>
     <use xlink:href="#DejaVuSerif-64" transform="translate(1175.683594 0)"/>
    </g>
    <!-- (120 GB) -->
    <g transform="translate(249.207187 48.489187) scale(0.18 -0.18)">
     <defs>
      <path id="DejaVuSerif-28" d="M 2041 -997 
Q 1281 -656 893 83 
Q 506 822 506 1931 
Q 506 3044 893 3783 
Q 1281 4522 2041 4863 
L 2041 4556 
Q 1559 4225 1350 3623 
Q 1141 3022 1141 1931 
Q 1141 844 1350 242 
Q 1559 -359 2041 -691 
L 2041 -997 
z
" transform="scale(0.015625)"/>
      <path id="DejaVuSerif-29" d="M 453 -997 
L 453 -691 
Q 934 -359 1145 242 
Q 1356 844 1356 1931 
Q 1356 3022 1145 3623 
Q 934 4225 453 4556 
L 453 4863 
Q 1216 4522 1603 3783 
Q 1991 3044 1991 1931 
Q 1991 822 1603 83 
Q 1216 -656 453 -997 
z
" transform="scale(0.015625)"/>
     </defs>
     <use xlink:href="#DejaVuSerif-28"/>
     <use xlink:href="#DejaVuSerif-31" transform="translate(39.013672 0)"/>
     <use xlink:href="#DejaVuSerif-32" transform="translate(102.636719 0)"/>
     <use xlink:href="#DejaVuSerif-30" transform="translate(166.259766 0)"/>
     <use xlink:href="#DejaVuSerif-20" transform="translate(229.882812 0)"/>
     <use xlink:href="#DejaVuSerif-47" transform="translate(261.669922 0)"/>
     <use xlink:href="#DejaVuSerif-42" transform="translate(341.552734 0)"/>
     <use xlink:href="#DejaVuSerif-29" transform="translate(415.039062 0)"/>
    </g>
   </g>
   <g id="patch_32">
    <path d="M 493.956563 40.154906 
L 522.756562 40.154906 
L 522.756562 27.554906 
L 493.956563 27.554906 
z
" style="fill: #2c6fb7; opacity: 0.5"/>
   </g>
   <g id="text_11">
    <!-- Cost of -->
    <g transform="translate(537.156563 28.205156) scale(0.18 -0.18)">
     <defs>
      <path id="DejaVuSerif-43" d="M 4513 1234 
Q 4306 581 3820 245 
Q 3334 -91 2591 -91 
Q 2134 -91 1743 65 
Q 1353 222 1050 525 
Q 700 875 529 1320 
Q 359 1766 359 2328 
Q 359 3416 987 4083 
Q 1616 4750 2644 4750 
Q 3025 4750 3456 4650 
Q 3888 4550 4384 4347 
L 4384 3272 
L 4031 3272 
Q 3916 3859 3567 4137 
Q 3219 4416 2591 4416 
Q 1844 4416 1459 3886 
Q 1075 3356 1075 2328 
Q 1075 1303 1459 773 
Q 1844 244 2591 244 
Q 3113 244 3450 492 
Q 3788 741 3938 1234 
L 4513 1234 
z
" transform="scale(0.015625)"/>
      <path id="DejaVuSerif-66" d="M 2753 4078 
L 2450 4078 
Q 2447 4313 2317 4434 
Q 2188 4556 1941 4556 
Q 1619 4556 1487 4379 
Q 1356 4203 1356 3750 
L 1356 3322 
L 2284 3322 
L 2284 2988 
L 1356 2988 
L 1356 331 
L 2094 331 
L 2094 0 
L 231 0 
L 231 331 
L 781 331 
L 781 2988 
L 231 2988 
L 231 3322 
L 781 3322 
L 781 3738 
Q 781 4294 1070 4578 
Q 1359 4863 1919 4863 
Q 2128 4863 2337 4825 
Q 2547 4788 2753 4709 
L 2753 4078 
z
" transform="scale(0.015625)"/>
     </defs>
     <use xlink:href="#DejaVuSerif-43"/>
     <use xlink:href="#DejaVuSerif-6f" transform="translate(76.513672 0)"/>
     <use xlink:href="#DejaVuSerif-73" transform="translate(136.71875 0)"/>
     <use xlink:href="#DejaVuSerif-74" transform="translate(188.037109 0)"/>
     <use xlink:href="#DejaVuSerif-20" transform="translate(228.222656 0)"/>
     <use xlink:href="#DejaVuSerif-6f" transform="translate(260.009766 0)"/>
     <use xlink:href="#DejaVuSerif-66" transform="translate(320.214844 0)"/>
    </g>
    <!-- underestimation -->
    <g transform="translate(537.156563 48.361219) scale(0.18 -0.18)">
     <use xlink:href="#DejaVuSerif-75"/>
     <use xlink:href="#DejaVuSerif-6e" transform="translate(64.404297 0)"/>
     <use xlink:href="#DejaVuSerif-64" transform="translate(128.808594 0)"/>
     <use xlink:href="#DejaVuSerif-65" transform="translate(192.822266 0)"/>
     <use xlink:href="#DejaVuSerif-72" transform="translate(252.001953 0)"/>
     <use xlink:href="#DejaVuSerif-65" transform="translate(299.804688 0)"/>
     <use xlink:href="#DejaVuSerif-73" transform="translate(358.984375 0)"/>
     <use xlink:href="#DejaVuSerif-74" transform="translate(410.302734 0)"/>
     <use xlink:href="#DejaVuSerif-69" transform="translate(450.488281 0)"/>
     <use xlink:href="#DejaVuSerif-6d" transform="translate(482.470703 0)"/>
     <use xlink:href="#DejaVuSerif-61" transform="translate(577.294922 0)"/>
     <use xlink:href="#DejaVuSerif-74" transform="translate(636.914062 0)"/>
     <use xlink:href="#DejaVuSerif-69" transform="translate(677.099609 0)"/>
     <use xlink:href="#DejaVuSerif-6f" transform="translate(709.082031 0)"/>
     <use xlink:href="#DejaVuSerif-6e" transform="translate(769.287109 0)"/>
    </g>
   </g>
   <g id="patch_33">
    <path d="M 708.825938 40.154906 
L 737.625937 40.154906 
L 737.625937 27.554906 
L 708.825938 27.554906 
z
" style="fill: #178a2f; opacity: 0.9"/>
   </g>
   <g id="text_12">
    <!-- Cost of -->
    <g transform="translate(752.025938 28.205156) scale(0.18 -0.18)">
     <use xlink:href="#DejaVuSerif-43"/>
     <use xlink:href="#DejaVuSerif-6f" transform="translate(76.513672 0)"/>
     <use xlink:href="#DejaVuSerif-73" transform="translate(136.71875 0)"/>
     <use xlink:href="#DejaVuSerif-74" transform="translate(188.037109 0)"/>
     <use xlink:href="#DejaVuSerif-20" transform="translate(228.222656 0)"/>
     <use xlink:href="#DejaVuSerif-6f" transform="translate(260.009766 0)"/>
     <use xlink:href="#DejaVuSerif-66" transform="translate(320.214844 0)"/>
    </g>
    <!-- overestimation -->
    <g transform="translate(752.025938 48.361219) scale(0.18 -0.18)">
     <defs>
      <path id="DejaVuSerif-76" d="M 1581 0 
L 359 2988 
L -19 2988 
L -19 3322 
L 1509 3322 
L 1509 2988 
L 978 2988 
L 1913 703 
L 2847 2988 
L 2350 2988 
L 2350 3322 
L 3597 3322 
L 3597 2988 
L 3225 2988 
L 2003 0 
L 1581 0 
z
" transform="scale(0.015625)"/>
     </defs>
     <use xlink:href="#DejaVuSerif-6f"/>
     <use xlink:href="#DejaVuSerif-76" transform="translate(60.205078 0)"/>
     <use xlink:href="#DejaVuSerif-65" transform="translate(116.699219 0)"/>
     <use xlink:href="#DejaVuSerif-72" transform="translate(175.878906 0)"/>
     <use xlink:href="#DejaVuSerif-65" transform="translate(223.681641 0)"/>
     <use xlink:href="#DejaVuSerif-73" transform="translate(282.861328 0)"/>
     <use xlink:href="#DejaVuSerif-74" transform="translate(334.179688 0)"/>
     <use xlink:href="#DejaVuSerif-69" transform="translate(374.365234 0)"/>
     <use xlink:href="#DejaVuSerif-6d" transform="translate(406.347656 0)"/>
     <use xlink:href="#DejaVuSerif-61" transform="translate(501.171875 0)"/>
     <use xlink:href="#DejaVuSerif-74" transform="translate(560.791016 0)"/>
     <use xlink:href="#DejaVuSerif-69" transform="translate(600.976562 0)"/>
     <use xlink:href="#DejaVuSerif-6f" transform="translate(632.958984 0)"/>
     <use xlink:href="#DejaVuSerif-6e" transform="translate(693.164062 0)"/>
    </g>
   </g>
  </g>
 </g>
 <defs>
  <clipPath id="pcee181b20b">
   <rect x="7.2" y="104.688" width="814.736842" height="137.808"/>
  </clipPath>
  <clipPath id="p11a5c2a1ab">
   <rect x="952.731203" y="104.688" width="123.042857" height="137.808"/>
  </clipPath>
  <clipPath id="pfd630fef78">
   <rect x="7.2" y="276.948" width="814.736842" height="137.808"/>
  </clipPath>
  <clipPath id="p5794a2ef63">
   <rect x="952.731203" y="276.948" width="123.042857" height="137.808"/>
  </clipPath>
  <clipPath id="p96fbb6b646">
   <rect x="7.2" y="449.208" width="814.736842" height="137.808"/>
  </clipPath>
  <clipPath id="pc3e84e1ecf">
   <rect x="952.731203" y="449.208" width="123.042857" height="137.808"/>
  </clipPath>
 </defs>
</svg>
