<?xml version="1.0" encoding="utf-8" standalone="no"?>
<!DOCTYPE svg PUBLIC "-//W3C//DTD SVG 1.1//EN"
  "http://www.w3.org/Graphics/SVG/1.1/DTD/svg11.dtd">
<svg xmlns:xlink="http://www.w3.org/1999/xlink" width="983.8625pt" height="407.679531pt" viewBox="0 0 983.8625 407.679531" xmlns="http://www.w3.org/2000/svg" version="1.1">
 <metadata>
  <rdf:RDF xmlns:dc="http://purl.org/dc/elements/1.1/" xmlns:cc="http://creativecommons.org/ns#" xmlns:rdf="http://www.w3.org/1999/02/22-rdf-syntax-ns#">
   <cc:Work>
    <dc:type rdf:resource="http://purl.org/dc/dcmitype/StillImage"/>
    <dc:date>2026-03-19T14:28:14.416019</dc:date>
    <dc:format>image/svg+xml</dc:format>
    <dc:creator>
     <cc:Agent>
      <dc:title>Matplotlib v3.10.8, https://matplotlib.org/</dc:title>
     </cc:Agent>
    </dc:creator>
   </cc:Work>
  </rdf:RDF>
 </metadata>
 <defs>
  <style type="text/css">*{stroke-linejoin: round; stroke-linecap: butt}</style>
 </defs>
 <g id="figure_1">
  <g id="patch_1">
   <path d="M 0 407.679531 
L 983.8625 407.679531 
L 983.8625 0 
L 0 0 
z
" style="fill: #ffffff"/>
  </g>
  <g id="axes_1">
   <g id="patch_2">
    <path d="M 161.430781 366.513281 
L 550.565781 366.513281 
L 550.565781 21.558281 
L 161.430781 21.558281 
z
" style="fill: #ffffff"/>
   </g>
   <g id="matplotlib.axis_1">
    <g id="xtick_1">
     <g id="line2d_1">
      <path d="M 161.430781 366.513281 
L 161.430781 21.558281 
" clip-path="url(#p9e42ad07b5)" style="fill: none; stroke: #cccccc; stroke-linecap: round"/>
     </g>
     <g id="text_1">
      <!-- 0 -->
      <g style="fill: #262626" transform="translate(157.931406 384.371562) scale(0.11 -0.11)">
       <defs>
        <path id="DejaVuSerif-30" d="M 2034 219 
Q 2513 219 2750 744 
Q 2988 1269 2988 2328 
Q 2988 3391 2750 3916 
Q 2513 4441 2034 4441 
Q 1556 4441 1318 3916 
Q 1081 3391 1081 2328 
Q 1081 1269 1318 744 
Q 1556 219 2034 219 
z
M 2034 -91 
Q 1275 -91 848 546 
Q 422 1184 422 2328 
Q 422 3475 848 4112 
Q 1275 4750 2034 4750 
Q 2797 4750 3222 4112 
Q 3647 3475 3647 2328 
Q 3647 1184 3222 546 
Q 2797 -91 2034 -91 
z
" transform="scale(0.015625)"/>
       </defs>
       <use xlink:href="#DejaVuSerif-30"/>
      </g>
     </g>
    </g>
    <g id="xtick_2">
     <g id="line2d_2">
      <path d="M 230.041565 366.513281 
L 230.041565 21.558281 
" clip-path="url(#p9e42ad07b5)" style="fill: none; stroke: #cccccc; stroke-linecap: round"/>
     </g>
     <g id="text_2">
      <!-- 2 -->
      <g style="fill: #262626" transform="translate(226.54219 384.371562) scale(0.11 -0.11)">
       <defs>
        <path id="DejaVuSerif-32" d="M 819 3553 
L 469 3553 
L 469 4384 
Q 803 4563 1142 4656 
Q 1481 4750 1806 4750 
Q 2534 4750 2956 4397 
Q 3378 4044 3378 3438 
Q 3378 2753 2422 1800 
Q 2347 1728 2309 1691 
L 1131 513 
L 3078 513 
L 3078 1088 
L 3444 1088 
L 3444 0 
L 434 0 
L 434 341 
L 1850 1753 
Q 2319 2222 2519 2614 
Q 2719 3006 2719 3438 
Q 2719 3909 2473 4175 
Q 2228 4441 1797 4441 
Q 1350 4441 1106 4219 
Q 863 3997 819 3553 
z
" transform="scale(0.015625)"/>
       </defs>
       <use xlink:href="#DejaVuSerif-32"/>
      </g>
     </g>
    </g>
    <g id="xtick_3">
     <g id="line2d_3">
      <path d="M 298.65235 366.513281 
L 298.65235 21.558281 
" clip-path="url(#p9e42ad07b5)" style="fill: none; stroke: #cccccc; stroke-linecap: round"/>
     </g>
     <g id="text_3">
      <!-- 4 -->
      <g style="fill: #262626" transform="translate(295.152975 384.371562) scale(0.11 -0.11)">
       <defs>
        <path id="DejaVuSerif-34" d="M 2234 1581 
L 2234 4063 
L 641 1581 
L 2234 1581 
z
M 3609 0 
L 1484 0 
L 1484 331 
L 2234 331 
L 2234 1247 
L 197 1247 
L 197 1588 
L 2241 4750 
L 2859 4750 
L 2859 1581 
L 3750 1581 
L 3750 1247 
L 2859 1247 
L 2859 331 
L 3609 331 
L 3609 0 
z
" transform="scale(0.015625)"/>
       </defs>
       <use xlink:href="#DejaVuSerif-34"/>
      </g>
     </g>
    </g>
    <g id="xtick_4">
     <g id="line2d_4">
      <path d="M 367.263134 366.513281 
L 367.263134 21.558281 
" clip-path="url(#p9e42ad07b5)" style="fill: none; stroke: #cccccc; stroke-linecap: round"/>
     </g>
     <g id="text_4">
      <!-- 6 -->
      <g style="fill: #262626" transform="translate(363.763759 384.371562) scale(0.11 -0.11)">
       <defs>
        <path id="DejaVuSerif-36" d="M 2094 219 
Q 2534 219 2771 542 
Q 3009 866 3009 1472 
Q 3009 2078 2771 2401 
Q 2534 2725 2094 2725 
Q 1647 2725 1412 2412 
Q 1178 2100 1178 1509 
Q 1178 888 1415 553 
Q 1653 219 2094 219 
z
M 1075 2569 
Q 1288 2803 1556 2918 
Q 1825 3034 2163 3034 
Q 2859 3034 3264 2615 
Q 3669 2197 3669 1472 
Q 3669 763 3233 336 
Q 2797 -91 2069 -91 
Q 1278 -91 853 498 
Q 428 1088 428 2181 
Q 428 3406 931 4078 
Q 1434 4750 2350 4750 
Q 2597 4750 2869 4703 
Q 3141 4656 3425 4563 
L 3425 3794 
L 3072 3794 
Q 3034 4109 2831 4275 
Q 2628 4441 2284 4441 
Q 1678 4441 1381 3981 
Q 1084 3522 1075 2569 
z
" transform="scale(0.015625)"/>
       </defs>
       <use xlink:href="#DejaVuSerif-36"/>
      </g>
     </g>
    </g>
    <g id="xtick_5">
     <g id="line2d_5">
      <path d="M 435.873918 366.513281 
L 435.873918 21.558281 
" clip-path="url(#p9e42ad07b5)" style="fill: none; stroke: #cccccc; stroke-linecap: round"/>
     </g>
     <g id="text_5">
      <!-- 8 -->
      <g style="fill: #262626" transform="translate(432.374543 384.371562) scale(0.11 -0.11)">
       <defs>
        <path id="DejaVuSerif-38" d="M 2981 1275 
Q 2981 1775 2732 2051 
Q 2484 2328 2034 2328 
Q 1584 2328 1336 2051 
Q 1088 1775 1088 1275 
Q 1088 772 1336 495 
Q 1584 219 2034 219 
Q 2484 219 2732 495 
Q 2981 772 2981 1275 
z
M 2853 3541 
Q 2853 3966 2637 4203 
Q 2422 4441 2034 4441 
Q 1650 4441 1433 4203 
Q 1216 3966 1216 3541 
Q 1216 3113 1433 2875 
Q 1650 2638 2034 2638 
Q 2422 2638 2637 2875 
Q 2853 3113 2853 3541 
z
M 2516 2484 
Q 3047 2413 3344 2092 
Q 3641 1772 3641 1275 
Q 3641 619 3225 264 
Q 2809 -91 2034 -91 
Q 1263 -91 845 264 
Q 428 619 428 1275 
Q 428 1772 725 2092 
Q 1022 2413 1556 2484 
Q 1084 2569 832 2842 
Q 581 3116 581 3541 
Q 581 4103 968 4426 
Q 1356 4750 2034 4750 
Q 2713 4750 3100 4426 
Q 3488 4103 3488 3541 
Q 3488 3116 3236 2842 
Q 2984 2569 2516 2484 
z
" transform="scale(0.015625)"/>
       </defs>
       <use xlink:href="#DejaVuSerif-38"/>
      </g>
     </g>
    </g>
    <g id="xtick_6">
     <g id="line2d_6">
      <path d="M 504.484702 366.513281 
L 504.484702 21.558281 
" clip-path="url(#p9e42ad07b5)" style="fill: none; stroke: #cccccc; stroke-linecap: round"/>
     </g>
     <g id="text_6">
      <!-- 10 -->
      <g style="fill: #262626" transform="translate(497.485952 384.371562) scale(0.11 -0.11)">
       <defs>
        <path id="DejaVuSerif-31" d="M 909 0 
L 909 331 
L 1722 331 
L 1722 4213 
L 781 3603 
L 781 4013 
L 1919 4750 
L 2350 4750 
L 2350 331 
L 3163 331 
L 3163 0 
L 909 0 
z
" transform="scale(0.015625)"/>
       </defs>
       <use xlink:href="#DejaVuSerif-31"/>
       <use xlink:href="#DejaVuSerif-30" transform="translate(63.623047 0)"/>
      </g>
     </g>
    </g>
    <g id="text_7">
     <!-- Memory cost per 1000 jobs (Million GB·h) -->
     <g style="fill: #262626" transform="translate(249.305313 398.257656) scale(0.1 -0.1)">
      <defs>
       <path id="DejaVuSerif-4d" d="M 353 0 
L 353 331 
L 947 331 
L 947 4331 
L 319 4331 
L 319 4666 
L 1678 4666 
L 3316 1344 
L 4953 4666 
L 6228 4666 
L 6228 4331 
L 5606 4331 
L 5606 331 
L 6203 331 
L 6203 0 
L 4378 0 
L 4378 331 
L 4972 331 
L 4972 3938 
L 3372 684 
L 2931 684 
L 1331 3938 
L 1331 331 
L 1925 331 
L 1925 0 
L 353 0 
z
" transform="scale(0.015625)"/>
       <path id="DejaVuSerif-65" d="M 3469 1600 
L 991 1600 
L 991 1575 
Q 991 903 1244 561 
Q 1497 219 1991 219 
Q 2369 219 2611 417 
Q 2853 616 2950 1006 
L 3413 1006 
Q 3275 459 2904 184 
Q 2534 -91 1931 -91 
Q 1203 -91 761 389 
Q 319 869 319 1663 
Q 319 2450 753 2931 
Q 1188 3413 1894 3413 
Q 2647 3413 3050 2948 
Q 3453 2484 3469 1600 
z
M 2791 1931 
Q 2772 2513 2545 2808 
Q 2319 3103 1894 3103 
Q 1497 3103 1269 2806 
Q 1041 2509 991 1931 
L 2791 1931 
z
" transform="scale(0.015625)"/>
       <path id="DejaVuSerif-6d" d="M 3316 2675 
Q 3481 3041 3739 3227 
Q 3997 3413 4341 3413 
Q 4863 3413 5119 3089 
Q 5375 2766 5375 2113 
L 5375 331 
L 5894 331 
L 5894 0 
L 4300 0 
L 4300 331 
L 4800 331 
L 4800 2047 
Q 4800 2556 4650 2772 
Q 4500 2988 4153 2988 
Q 3769 2988 3567 2697 
Q 3366 2406 3366 1850 
L 3366 331 
L 3866 331 
L 3866 0 
L 2291 0 
L 2291 331 
L 2791 331 
L 2791 2069 
Q 2791 2566 2641 2777 
Q 2491 2988 2144 2988 
Q 1759 2988 1557 2697 
Q 1356 2406 1356 1850 
L 1356 331 
L 1856 331 
L 1856 0 
L 263 0 
L 263 331 
L 781 331 
L 781 2994 
L 231 2994 
L 231 3322 
L 1356 3322 
L 1356 2731 
Q 1516 3063 1762 3238 
Q 2009 3413 2322 3413 
Q 2709 3413 2968 3220 
Q 3228 3028 3316 2675 
z
" transform="scale(0.015625)"/>
       <path id="DejaVuSerif-6f" d="M 1925 219 
Q 2388 219 2623 584 
Q 2859 950 2859 1663 
Q 2859 2375 2623 2739 
Q 2388 3103 1925 3103 
Q 1463 3103 1227 2739 
Q 991 2375 991 1663 
Q 991 950 1228 584 
Q 1466 219 1925 219 
z
M 1925 -91 
Q 1200 -91 759 389 
Q 319 869 319 1663 
Q 319 2456 758 2934 
Q 1197 3413 1925 3413 
Q 2653 3413 3092 2934 
Q 3531 2456 3531 1663 
Q 3531 869 3092 389 
Q 2653 -91 1925 -91 
z
" transform="scale(0.015625)"/>
       <path id="DejaVuSerif-72" d="M 3059 3328 
L 3059 2497 
L 2728 2497 
Q 2713 2744 2591 2866 
Q 2469 2988 2234 2988 
Q 1809 2988 1582 2694 
Q 1356 2400 1356 1850 
L 1356 331 
L 2022 331 
L 2022 0 
L 263 0 
L 263 331 
L 781 331 
L 781 2994 
L 231 2994 
L 231 3322 
L 1356 3322 
L 1356 2731 
Q 1525 3078 1790 3245 
Q 2056 3413 2438 3413 
Q 2578 3413 2733 3391 
Q 2888 3369 3059 3328 
z
" transform="scale(0.015625)"/>
       <path id="DejaVuSerif-79" d="M 1381 -609 
L 1600 -56 
L 359 2988 
L -19 2988 
L -19 3322 
L 1509 3322 
L 1509 2988 
L 978 2988 
L 1913 703 
L 2847 2988 
L 2350 2988 
L 2350 3322 
L 3597 3322 
L 3597 2988 
L 3225 2988 
L 1703 -750 
Q 1547 -1138 1356 -1280 
Q 1166 -1422 819 -1422 
Q 672 -1422 517 -1397 
Q 363 -1372 206 -1325 
L 206 -691 
L 500 -691 
Q 519 -903 608 -995 
Q 697 -1088 884 -1088 
Q 1056 -1088 1161 -992 
Q 1266 -897 1381 -609 
z
" transform="scale(0.015625)"/>
       <path id="DejaVuSerif-20" transform="scale(0.015625)"/>
       <path id="DejaVuSerif-63" d="M 3291 997 
Q 3169 466 2822 187 
Q 2475 -91 1925 -91 
Q 1200 -91 759 389 
Q 319 869 319 1663 
Q 319 2459 759 2936 
Q 1200 3413 1925 3413 
Q 2241 3413 2553 3339 
Q 2866 3266 3181 3116 
L 3181 2266 
L 2847 2266 
Q 2781 2703 2561 2903 
Q 2341 3103 1931 3103 
Q 1466 3103 1228 2742 
Q 991 2381 991 1663 
Q 991 944 1227 581 
Q 1463 219 1931 219 
Q 2303 219 2525 412 
Q 2747 606 2828 997 
L 3291 997 
z
" transform="scale(0.015625)"/>
       <path id="DejaVuSerif-73" d="M 359 184 
L 359 959 
L 691 959 
Q 703 588 923 403 
Q 1144 219 1575 219 
Q 1963 219 2166 364 
Q 2369 509 2369 788 
Q 2369 1006 2220 1140 
Q 2072 1275 1594 1428 
L 1178 1569 
Q 750 1706 558 1912 
Q 366 2119 366 2438 
Q 366 2894 700 3153 
Q 1034 3413 1625 3413 
Q 1888 3413 2178 3344 
Q 2469 3275 2778 3144 
L 2778 2419 
L 2447 2419 
Q 2434 2741 2221 2922 
Q 2009 3103 1644 3103 
Q 1281 3103 1095 2975 
Q 909 2847 909 2591 
Q 909 2381 1050 2254 
Q 1191 2128 1613 1997 
L 2069 1856 
Q 2541 1709 2748 1489 
Q 2956 1269 2956 922 
Q 2956 450 2595 179 
Q 2234 -91 1600 -91 
Q 1278 -91 972 -22 
Q 666 47 359 184 
z
" transform="scale(0.015625)"/>
       <path id="DejaVuSerif-74" d="M 691 2988 
L 184 2988 
L 184 3322 
L 691 3322 
L 691 4353 
L 1269 4353 
L 1269 3322 
L 2350 3322 
L 2350 2988 
L 1269 2988 
L 1269 878 
Q 1269 456 1350 337 
Q 1431 219 1650 219 
Q 1875 219 1978 351 
Q 2081 484 2088 781 
L 2522 781 
Q 2497 328 2275 118 
Q 2053 -91 1600 -91 
Q 1103 -91 897 129 
Q 691 350 691 878 
L 691 2988 
z
" transform="scale(0.015625)"/>
       <path id="DejaVuSerif-70" d="M 1313 1825 
L 1313 1497 
Q 1313 897 1542 583 
Q 1772 269 2209 269 
Q 2650 269 2876 622 
Q 3103 975 3103 1663 
Q 3103 2353 2876 2703 
Q 2650 3053 2209 3053 
Q 1772 3053 1542 2737 
Q 1313 2422 1313 1825 
z
M 738 2988 
L 184 2988 
L 184 3322 
L 1313 3322 
L 1313 2803 
Q 1481 3116 1742 3264 
Q 2003 3413 2388 3413 
Q 3000 3413 3387 2928 
Q 3775 2444 3775 1663 
Q 3775 881 3387 395 
Q 3000 -91 2388 -91 
Q 2003 -91 1742 57 
Q 1481 206 1313 519 
L 1313 -997 
L 1856 -997 
L 1856 -1331 
L 184 -1331 
L 184 -997 
L 738 -997 
L 738 2988 
z
" transform="scale(0.015625)"/>
       <path id="DejaVuSerif-6a" d="M 641 4353 
Q 641 4497 745 4603 
Q 850 4709 997 4709 
Q 1141 4709 1245 4603 
Q 1350 4497 1350 4353 
Q 1350 4206 1248 4103 
Q 1147 4000 997 4000 
Q 850 4000 745 4103 
Q 641 4206 641 4353 
z
M 781 2988 
L 238 2988 
L 238 3322 
L 1356 3322 
L 1356 -325 
Q 1356 -838 1051 -1130 
Q 747 -1422 213 -1422 
Q -13 -1422 -217 -1370 
Q -422 -1319 -616 -1216 
L -616 -531 
L -319 -531 
Q -297 -831 -164 -972 
Q -31 -1113 225 -1113 
Q 509 -1113 645 -920 
Q 781 -728 781 -325 
L 781 2988 
z
" transform="scale(0.015625)"/>
       <path id="DejaVuSerif-62" d="M 738 331 
L 738 4531 
L 184 4531 
L 184 4863 
L 1313 4863 
L 1313 2803 
Q 1481 3116 1742 3264 
Q 2003 3413 2388 3413 
Q 3000 3413 3387 2928 
Q 3775 2444 3775 1663 
Q 3775 881 3387 395 
Q 3000 -91 2388 -91 
Q 2003 -91 1742 57 
Q 1481 206 1313 519 
L 1313 0 
L 184 0 
L 184 331 
L 738 331 
z
M 1313 1497 
Q 1313 897 1542 583 
Q 1772 269 2209 269 
Q 2650 269 2876 622 
Q 3103 975 3103 1663 
Q 3103 2353 2876 2703 
Q 2650 3053 2209 3053 
Q 1772 3053 1542 2737 
Q 1313 2422 1313 1825 
L 1313 1497 
z
" transform="scale(0.015625)"/>
       <path id="DejaVuSerif-28" d="M 2041 -997 
Q 1281 -656 893 83 
Q 506 822 506 1931 
Q 506 3044 893 3783 
Q 1281 4522 2041 4863 
L 2041 4556 
Q 1559 4225 1350 3623 
Q 1141 3022 1141 1931 
Q 1141 844 1350 242 
Q 1559 -359 2041 -691 
L 2041 -997 
z
" transform="scale(0.015625)"/>
       <path id="DejaVuSerif-69" d="M 622 4353 
Q 622 4497 726 4603 
Q 831 4709 978 4709 
Q 1122 4709 1226 4603 
Q 1331 4497 1331 4353 
Q 1331 4206 1228 4103 
Q 1125 4000 978 4000 
Q 831 4000 726 4103 
Q 622 4206 622 4353 
z
M 1356 331 
L 1900 331 
L 1900 0 
L 231 0 
L 231 331 
L 781 331 
L 781 2988 
L 231 2988 
L 231 3322 
L 1356 3322 
L 1356 331 
z
" transform="scale(0.015625)"/>
       <path id="DejaVuSerif-6c" d="M 1313 331 
L 1856 331 
L 1856 0 
L 184 0 
L 184 331 
L 738 331 
L 738 4531 
L 184 4531 
L 184 4863 
L 1313 4863 
L 1313 331 
z
" transform="scale(0.015625)"/>
       <path id="DejaVuSerif-6e" d="M 263 0 
L 263 331 
L 781 331 
L 781 2988 
L 231 2988 
L 231 3322 
L 1356 3322 
L 1356 2731 
Q 1516 3069 1770 3241 
Q 2025 3413 2363 3413 
Q 2913 3413 3172 3097 
Q 3431 2781 3431 2113 
L 3431 331 
L 3944 331 
L 3944 0 
L 2356 0 
L 2356 331 
L 2853 331 
L 2853 1931 
Q 2853 2541 2703 2767 
Q 2553 2994 2175 2994 
Q 1775 2994 1565 2701 
Q 1356 2409 1356 1850 
L 1356 331 
L 1856 331 
L 1856 0 
L 263 0 
z
" transform="scale(0.015625)"/>
       <path id="DejaVuSerif-47" d="M 4097 3272 
Q 3988 3856 3641 4136 
Q 3294 4416 2675 4416 
Q 1869 4416 1472 3897 
Q 1075 3378 1075 2328 
Q 1075 1300 1484 772 
Q 1894 244 2688 244 
Q 3041 244 3362 331 
Q 3684 419 3975 594 
L 3975 1797 
L 3097 1797 
L 3097 2131 
L 4609 2131 
L 4609 391 
Q 4194 150 3714 29 
Q 3234 -91 2688 -91 
Q 1631 -91 995 570 
Q 359 1231 359 2328 
Q 359 3434 996 4092 
Q 1634 4750 2713 4750 
Q 3113 4750 3539 4658 
Q 3966 4566 4447 4378 
L 4447 3272 
L 4097 3272 
z
" transform="scale(0.015625)"/>
       <path id="DejaVuSerif-42" d="M 1581 331 
L 2516 331 
Q 3078 331 3337 575 
Q 3597 819 3597 1350 
Q 3597 1878 3339 2120 
Q 3081 2363 2516 2363 
L 1581 2363 
L 1581 331 
z
M 1581 2694 
L 2375 2694 
Q 2888 2694 3123 2891 
Q 3359 3088 3359 3513 
Q 3359 3941 3123 4136 
Q 2888 4331 2375 4331 
L 1581 4331 
L 1581 2694 
z
M 353 0 
L 353 331 
L 947 331 
L 947 4331 
L 353 4331 
L 353 4666 
L 2656 4666 
Q 3363 4666 3720 4377 
Q 4078 4088 4078 3513 
Q 4078 3097 3829 2850 
Q 3581 2603 3103 2547 
Q 3697 2472 4005 2167 
Q 4313 1863 4313 1350 
Q 4313 656 3875 328 
Q 3438 0 2509 0 
L 353 0 
z
" transform="scale(0.015625)"/>
       <path id="DejaVuSerif-b7" d="M 594 2222 
Q 594 2397 714 2517 
Q 834 2638 1013 2638 
Q 1184 2638 1306 2516 
Q 1428 2394 1428 2222 
Q 1428 2047 1306 1926 
Q 1184 1806 1013 1806 
Q 834 1806 714 1925 
Q 594 2044 594 2222 
z
" transform="scale(0.015625)"/>
       <path id="DejaVuSerif-68" d="M 263 0 
L 263 331 
L 781 331 
L 781 4531 
L 231 4531 
L 231 4863 
L 1356 4863 
L 1356 2731 
Q 1516 3069 1770 3241 
Q 2025 3413 2363 3413 
Q 2913 3413 3172 3097 
Q 3431 2781 3431 2113 
L 3431 331 
L 3944 331 
L 3944 0 
L 2356 0 
L 2356 331 
L 2853 331 
L 2853 1931 
Q 2853 2541 2704 2764 
Q 2556 2988 2175 2988 
Q 1775 2988 1565 2697 
Q 1356 2406 1356 1850 
L 1356 331 
L 1856 331 
L 1856 0 
L 263 0 
z
" transform="scale(0.015625)"/>
       <path id="DejaVuSerif-29" d="M 453 -997 
L 453 -691 
Q 934 -359 1145 242 
Q 1356 844 1356 1931 
Q 1356 3022 1145 3623 
Q 934 4225 453 4556 
L 453 4863 
Q 1216 4522 1603 3783 
Q 1991 3044 1991 1931 
Q 1991 822 1603 83 
Q 1216 -656 453 -997 
z
" transform="scale(0.015625)"/>
      </defs>
      <use xlink:href="#DejaVuSerif-4d"/>
      <use xlink:href="#DejaVuSerif-65" transform="translate(102.392578 0)"/>
      <use xlink:href="#DejaVuSerif-6d" transform="translate(161.572266 0)"/>
      <use xlink:href="#DejaVuSerif-6f" transform="translate(256.396484 0)"/>
      <use xlink:href="#DejaVuSerif-72" transform="translate(316.601562 0)"/>
      <use xlink:href="#DejaVuSerif-79" transform="translate(364.404297 0)"/>
      <use xlink:href="#DejaVuSerif-20" transform="translate(420.898438 0)"/>
      <use xlink:href="#DejaVuSerif-63" transform="translate(452.685547 0)"/>
      <use xlink:href="#DejaVuSerif-6f" transform="translate(508.691406 0)"/>
      <use xlink:href="#DejaVuSerif-73" transform="translate(568.896484 0)"/>
      <use xlink:href="#DejaVuSerif-74" transform="translate(620.214844 0)"/>
      <use xlink:href="#DejaVuSerif-20" transform="translate(660.400391 0)"/>
      <use xlink:href="#DejaVuSerif-70" transform="translate(692.1875 0)"/>
      <use xlink:href="#DejaVuSerif-65" transform="translate(756.201172 0)"/>
      <use xlink:href="#DejaVuSerif-72" transform="translate(815.380859 0)"/>
      <use xlink:href="#DejaVuSerif-20" transform="translate(863.183594 0)"/>
      <use xlink:href="#DejaVuSerif-31" transform="translate(894.970703 0)"/>
      <use xlink:href="#DejaVuSerif-30" transform="translate(958.59375 0)"/>
      <use xlink:href="#DejaVuSerif-30" transform="translate(1022.216797 0)"/>
      <use xlink:href="#DejaVuSerif-30" transform="translate(1085.839844 0)"/>
      <use xlink:href="#DejaVuSerif-20" transform="translate(1149.462891 0)"/>
      <use xlink:href="#DejaVuSerif-6a" transform="translate(1181.25 0)"/>
      <use xlink:href="#DejaVuSerif-6f" transform="translate(1212.255859 0)"/>
      <use xlink:href="#DejaVuSerif-62" transform="translate(1272.460938 0)"/>
      <use xlink:href="#DejaVuSerif-73" transform="translate(1336.474609 0)"/>
      <use xlink:href="#DejaVuSerif-20" transform="translate(1387.792969 0)"/>
      <use xlink:href="#DejaVuSerif-28" transform="translate(1419.580078 0)"/>
      <use xlink:href="#DejaVuSerif-4d" transform="translate(1458.59375 0)"/>
      <use xlink:href="#DejaVuSerif-69" transform="translate(1560.986328 0)"/>
      <use xlink:href="#DejaVuSerif-6c" transform="translate(1592.96875 0)"/>
      <use xlink:href="#DejaVuSerif-6c" transform="translate(1624.951172 0)"/>
      <use xlink:href="#DejaVuSerif-69" transform="translate(1656.933594 0)"/>
      <use xlink:href="#DejaVuSerif-6f" transform="translate(1688.916016 0)"/>
      <use xlink:href="#DejaVuSerif-6e" transform="translate(1749.121094 0)"/>
      <use xlink:href="#DejaVuSerif-20" transform="translate(1813.525391 0)"/>
      <use xlink:href="#DejaVuSerif-47" transform="translate(1845.3125 0)"/>
      <use xlink:href="#DejaVuSerif-42" transform="translate(1925.195312 0)"/>
      <use xlink:href="#DejaVuSerif-b7" transform="translate(1998.681641 0)"/>
      <use xlink:href="#DejaVuSerif-68" transform="translate(2030.46875 0)"/>
      <use xlink:href="#DejaVuSerif-29" transform="translate(2094.873047 0)"/>
     </g>
    </g>
   </g>
   <g id="matplotlib.axis_2">
    <g id="ytick_1">
     <g id="line2d_7">
      <path d="M 161.430781 336.57917 
L 550.565781 336.57917 
" clip-path="url(#p9e42ad07b5)" style="fill: none; stroke: #cccccc; stroke-linecap: round"/>
     </g>
     <g id="text_8">
      <!-- Galaxy Heuristic -->
      <g style="fill: #262626" transform="translate(58.88625 340.75831) scale(0.11 -0.11)">
       <defs>
        <path id="DejaVuSerif-61" d="M 2547 1044 
L 2547 1747 
L 1806 1747 
Q 1378 1747 1168 1562 
Q 959 1378 959 997 
Q 959 650 1171 447 
Q 1384 244 1747 244 
Q 2106 244 2326 466 
Q 2547 688 2547 1044 
z
M 3122 2075 
L 3122 331 
L 3634 331 
L 3634 0 
L 2547 0 
L 2547 359 
Q 2356 128 2106 18 
Q 1856 -91 1522 -91 
Q 969 -91 644 203 
Q 319 497 319 997 
Q 319 1513 691 1797 
Q 1063 2081 1741 2081 
L 2547 2081 
L 2547 2309 
Q 2547 2688 2317 2895 
Q 2088 3103 1672 3103 
Q 1328 3103 1125 2947 
Q 922 2791 872 2484 
L 575 2484 
L 575 3156 
Q 875 3284 1158 3348 
Q 1441 3413 1709 3413 
Q 2400 3413 2761 3070 
Q 3122 2728 3122 2075 
z
" transform="scale(0.015625)"/>
        <path id="DejaVuSerif-78" d="M 1863 2028 
L 2559 2988 
L 2113 2988 
L 2113 3322 
L 3391 3322 
L 3391 2988 
L 2950 2988 
L 2059 1759 
L 3097 331 
L 3531 331 
L 3531 0 
L 1997 0 
L 1997 331 
L 2419 331 
L 1697 1325 
L 972 331 
L 1403 331 
L 1403 0 
L 141 0 
L 141 331 
L 581 331 
L 1497 1594 
L 488 2988 
L 78 2988 
L 78 3322 
L 1563 3322 
L 1563 2988 
L 1166 2988 
L 1863 2028 
z
" transform="scale(0.015625)"/>
        <path id="DejaVuSerif-48" d="M 353 0 
L 353 331 
L 947 331 
L 947 4331 
L 353 4331 
L 353 4666 
L 2175 4666 
L 2175 4331 
L 1581 4331 
L 1581 2719 
L 4000 2719 
L 4000 4331 
L 3406 4331 
L 3406 4666 
L 5228 4666 
L 5228 4331 
L 4634 4331 
L 4634 331 
L 5228 331 
L 5228 0 
L 3406 0 
L 3406 331 
L 4000 331 
L 4000 2338 
L 1581 2338 
L 1581 331 
L 2175 331 
L 2175 0 
L 353 0 
z
" transform="scale(0.015625)"/>
        <path id="DejaVuSerif-75" d="M 2266 3322 
L 3341 3322 
L 3341 331 
L 3884 331 
L 3884 0 
L 2766 0 
L 2766 588 
Q 2606 256 2353 82 
Q 2100 -91 1766 -91 
Q 1213 -91 952 223 
Q 691 538 691 1209 
L 691 2988 
L 172 2988 
L 172 3322 
L 1269 3322 
L 1269 1388 
Q 1269 781 1417 556 
Q 1566 331 1947 331 
Q 2347 331 2556 625 
Q 2766 919 2766 1478 
L 2766 2988 
L 2266 2988 
L 2266 3322 
z
" transform="scale(0.015625)"/>
       </defs>
       <use xlink:href="#DejaVuSerif-47"/>
       <use xlink:href="#DejaVuSerif-61" transform="translate(79.882812 0)"/>
       <use xlink:href="#DejaVuSerif-6c" transform="translate(139.501953 0)"/>
       <use xlink:href="#DejaVuSerif-61" transform="translate(171.484375 0)"/>
       <use xlink:href="#DejaVuSerif-78" transform="translate(231.103516 0)"/>
       <use xlink:href="#DejaVuSerif-79" transform="translate(287.5 0)"/>
       <use xlink:href="#DejaVuSerif-20" transform="translate(343.994141 0)"/>
       <use xlink:href="#DejaVuSerif-48" transform="translate(375.78125 0)"/>
       <use xlink:href="#DejaVuSerif-65" transform="translate(462.988281 0)"/>
       <use xlink:href="#DejaVuSerif-75" transform="translate(522.167969 0)"/>
       <use xlink:href="#DejaVuSerif-72" transform="translate(586.572266 0)"/>
       <use xlink:href="#DejaVuSerif-69" transform="translate(634.375 0)"/>
       <use xlink:href="#DejaVuSerif-73" transform="translate(666.357422 0)"/>
       <use xlink:href="#DejaVuSerif-74" transform="translate(717.675781 0)"/>
       <use xlink:href="#DejaVuSerif-69" transform="translate(757.861328 0)"/>
       <use xlink:href="#DejaVuSerif-63" transform="translate(789.84375 0)"/>
      </g>
     </g>
    </g>
    <g id="ytick_2">
     <g id="line2d_8">
      <path d="M 161.430781 300.943323 
L 550.565781 300.943323 
" clip-path="url(#p9e42ad07b5)" style="fill: none; stroke: #cccccc; stroke-linecap: round"/>
     </g>
     <g id="text_9">
      <!-- Gaussian Processes -->
      <g style="fill: #262626" transform="translate(42.157656 299.799494) scale(0.11 -0.11)">
       <defs>
        <path id="DejaVuSerif-50" d="M 1581 2375 
L 2406 2375 
Q 2872 2375 3115 2626 
Q 3359 2878 3359 3353 
Q 3359 3831 3115 4081 
Q 2872 4331 2406 4331 
L 1581 4331 
L 1581 2375 
z
M 353 0 
L 353 331 
L 947 331 
L 947 4331 
L 353 4331 
L 353 4666 
L 2559 4666 
Q 3259 4666 3668 4311 
Q 4078 3956 4078 3353 
Q 4078 2753 3668 2397 
Q 3259 2041 2559 2041 
L 1581 2041 
L 1581 331 
L 2303 331 
L 2303 0 
L 353 0 
z
" transform="scale(0.015625)"/>
       </defs>
       <use xlink:href="#DejaVuSerif-47"/>
       <use xlink:href="#DejaVuSerif-61" transform="translate(79.882812 0)"/>
       <use xlink:href="#DejaVuSerif-75" transform="translate(139.501953 0)"/>
       <use xlink:href="#DejaVuSerif-73" transform="translate(203.90625 0)"/>
       <use xlink:href="#DejaVuSerif-73" transform="translate(255.224609 0)"/>
       <use xlink:href="#DejaVuSerif-69" transform="translate(306.542969 0)"/>
       <use xlink:href="#DejaVuSerif-61" transform="translate(338.525391 0)"/>
       <use xlink:href="#DejaVuSerif-6e" transform="translate(398.144531 0)"/>
       <use xlink:href="#DejaVuSerif-20" transform="translate(462.548828 0)"/>
       <use xlink:href="#DejaVuSerif-50" transform="translate(494.335938 0)"/>
       <use xlink:href="#DejaVuSerif-72" transform="translate(561.621094 0)"/>
       <use xlink:href="#DejaVuSerif-6f" transform="translate(609.423828 0)"/>
       <use xlink:href="#DejaVuSerif-63" transform="translate(669.628906 0)"/>
       <use xlink:href="#DejaVuSerif-65" transform="translate(725.634766 0)"/>
       <use xlink:href="#DejaVuSerif-73" transform="translate(784.814453 0)"/>
       <use xlink:href="#DejaVuSerif-73" transform="translate(836.132812 0)"/>
       <use xlink:href="#DejaVuSerif-65" transform="translate(887.451172 0)"/>
       <use xlink:href="#DejaVuSerif-73" transform="translate(946.630859 0)"/>
      </g>
      <!-- (K-mers + File size) -->
      <g style="fill: #262626" transform="translate(42.011562 312.117088) scale(0.11 -0.11)">
       <defs>
        <path id="DejaVuSerif-4b" d="M 353 0 
L 353 331 
L 947 331 
L 947 4331 
L 353 4331 
L 353 4666 
L 2175 4666 
L 2175 4331 
L 1581 4331 
L 1581 2566 
L 3591 4331 
L 3084 4331 
L 3084 4666 
L 4634 4666 
L 4634 4331 
L 4109 4331 
L 2106 2572 
L 4347 331 
L 4878 331 
L 4878 0 
L 3794 0 
L 1581 2216 
L 1581 331 
L 2175 331 
L 2175 0 
L 353 0 
z
" transform="scale(0.015625)"/>
        <path id="DejaVuSerif-2d" d="M 281 1959 
L 1881 1959 
L 1881 1472 
L 281 1472 
L 281 1959 
z
" transform="scale(0.015625)"/>
        <path id="DejaVuSerif-2b" d="M 2931 4013 
L 2931 2259 
L 4684 2259 
L 4684 1753 
L 2931 1753 
L 2931 0 
L 2431 0 
L 2431 1753 
L 678 1753 
L 678 2259 
L 2431 2259 
L 2431 4013 
L 2931 4013 
z
" transform="scale(0.015625)"/>
        <path id="DejaVuSerif-46" d="M 353 0 
L 353 331 
L 947 331 
L 947 4331 
L 353 4331 
L 353 4666 
L 4172 4666 
L 4172 3628 
L 3788 3628 
L 3788 4281 
L 1581 4281 
L 1581 2719 
L 3175 2719 
L 3175 3303 
L 3559 3303 
L 3559 1753 
L 3175 1753 
L 3175 2338 
L 1581 2338 
L 1581 331 
L 2328 331 
L 2328 0 
L 353 0 
z
" transform="scale(0.015625)"/>
        <path id="DejaVuSerif-7a" d="M 256 0 
L 256 269 
L 2338 2988 
L 691 2988 
L 691 2413 
L 359 2413 
L 359 3322 
L 3078 3322 
L 3078 3053 
L 997 331 
L 2803 331 
L 2803 934 
L 3138 934 
L 3138 0 
L 256 0 
z
" transform="scale(0.015625)"/>
       </defs>
       <use xlink:href="#DejaVuSerif-28"/>
       <use xlink:href="#DejaVuSerif-4b" transform="translate(39.013672 0)"/>
       <use xlink:href="#DejaVuSerif-2d" transform="translate(106.470703 0)"/>
       <use xlink:href="#DejaVuSerif-6d" transform="translate(140.259766 0)"/>
       <use xlink:href="#DejaVuSerif-65" transform="translate(235.083984 0)"/>
       <use xlink:href="#DejaVuSerif-72" transform="translate(294.263672 0)"/>
       <use xlink:href="#DejaVuSerif-73" transform="translate(342.066406 0)"/>
       <use xlink:href="#DejaVuSerif-20" transform="translate(393.384766 0)"/>
       <use xlink:href="#DejaVuSerif-2b" transform="translate(425.171875 0)"/>
       <use xlink:href="#DejaVuSerif-20" transform="translate(508.960938 0)"/>
       <use xlink:href="#DejaVuSerif-46" transform="translate(540.748047 0)"/>
       <use xlink:href="#DejaVuSerif-69" transform="translate(610.132812 0)"/>
       <use xlink:href="#DejaVuSerif-6c" transform="translate(642.115234 0)"/>
       <use xlink:href="#DejaVuSerif-65" transform="translate(674.097656 0)"/>
       <use xlink:href="#DejaVuSerif-20" transform="translate(733.277344 0)"/>
       <use xlink:href="#DejaVuSerif-73" transform="translate(765.064453 0)"/>
       <use xlink:href="#DejaVuSerif-69" transform="translate(816.382812 0)"/>
       <use xlink:href="#DejaVuSerif-7a" transform="translate(848.365234 0)"/>
       <use xlink:href="#DejaVuSerif-65" transform="translate(901.050781 0)"/>
       <use xlink:href="#DejaVuSerif-29" transform="translate(960.230469 0)"/>
      </g>
     </g>
    </g>
    <g id="ytick_3">
     <g id="line2d_9">
      <path d="M 161.430781 265.307475 
L 550.565781 265.307475 
" clip-path="url(#p9e42ad07b5)" style="fill: none; stroke: #cccccc; stroke-linecap: round"/>
     </g>
     <g id="text_10">
      <!-- Random Forest (K-mers + -->
      <g style="fill: #262626" transform="translate(7.2 264.163647) scale(0.11 -0.11)">
       <defs>
        <path id="DejaVuSerif-52" d="M 3066 2316 
Q 3284 2256 3442 2114 
Q 3600 1972 3725 1716 
L 4403 331 
L 4972 331 
L 4972 0 
L 3872 0 
L 3144 1484 
Q 2934 1916 2759 2042 
Q 2584 2169 2278 2169 
L 1581 2169 
L 1581 331 
L 2241 331 
L 2241 0 
L 353 0 
L 353 331 
L 947 331 
L 947 4331 
L 353 4331 
L 353 4666 
L 2719 4666 
Q 3400 4666 3770 4341 
Q 4141 4016 4141 3419 
Q 4141 2938 3870 2661 
Q 3600 2384 3066 2316 
z
M 1581 2503 
L 2503 2503 
Q 2975 2503 3200 2726 
Q 3425 2950 3425 3419 
Q 3425 3888 3200 4109 
Q 2975 4331 2503 4331 
L 1581 4331 
L 1581 2503 
z
" transform="scale(0.015625)"/>
        <path id="DejaVuSerif-64" d="M 3359 331 
L 3909 331 
L 3909 0 
L 2784 0 
L 2784 519 
Q 2616 206 2355 57 
Q 2094 -91 1709 -91 
Q 1097 -91 708 395 
Q 319 881 319 1663 
Q 319 2444 706 2928 
Q 1094 3413 1709 3413 
Q 2094 3413 2355 3264 
Q 2616 3116 2784 2803 
L 2784 4531 
L 2241 4531 
L 2241 4863 
L 3359 4863 
L 3359 331 
z
M 2784 1497 
L 2784 1825 
Q 2784 2422 2554 2737 
Q 2325 3053 1888 3053 
Q 1444 3053 1217 2703 
Q 991 2353 991 1663 
Q 991 975 1217 622 
Q 1444 269 1888 269 
Q 2325 269 2554 583 
Q 2784 897 2784 1497 
z
" transform="scale(0.015625)"/>
       </defs>
       <use xlink:href="#DejaVuSerif-52"/>
       <use xlink:href="#DejaVuSerif-61" transform="translate(77.542969 0)"/>
       <use xlink:href="#DejaVuSerif-6e" transform="translate(137.162109 0)"/>
       <use xlink:href="#DejaVuSerif-64" transform="translate(201.566406 0)"/>
       <use xlink:href="#DejaVuSerif-6f" transform="translate(265.580078 0)"/>
       <use xlink:href="#DejaVuSerif-6d" transform="translate(325.785156 0)"/>
       <use xlink:href="#DejaVuSerif-20" transform="translate(420.609375 0)"/>
       <use xlink:href="#DejaVuSerif-46" transform="translate(452.396484 0)"/>
       <use xlink:href="#DejaVuSerif-6f" transform="translate(516.28125 0)"/>
       <use xlink:href="#DejaVuSerif-72" transform="translate(576.486328 0)"/>
       <use xlink:href="#DejaVuSerif-65" transform="translate(624.289062 0)"/>
       <use xlink:href="#DejaVuSerif-73" transform="translate(683.46875 0)"/>
       <use xlink:href="#DejaVuSerif-74" transform="translate(734.787109 0)"/>
       <use xlink:href="#DejaVuSerif-20" transform="translate(774.972656 0)"/>
       <use xlink:href="#DejaVuSerif-28" transform="translate(806.759766 0)"/>
       <use xlink:href="#DejaVuSerif-4b" transform="translate(845.773438 0)"/>
       <use xlink:href="#DejaVuSerif-2d" transform="translate(913.230469 0)"/>
       <use xlink:href="#DejaVuSerif-6d" transform="translate(947.019531 0)"/>
       <use xlink:href="#DejaVuSerif-65" transform="translate(1041.84375 0)"/>
       <use xlink:href="#DejaVuSerif-72" transform="translate(1101.023438 0)"/>
       <use xlink:href="#DejaVuSerif-73" transform="translate(1148.826172 0)"/>
       <use xlink:href="#DejaVuSerif-20" transform="translate(1200.144531 0)"/>
       <use xlink:href="#DejaVuSerif-2b" transform="translate(1231.931641 0)"/>
      </g>
      <!-- File size + Biome) -->
      <g style="fill: #262626" transform="translate(50.118906 276.481241) scale(0.11 -0.11)">
       <use xlink:href="#DejaVuSerif-46"/>
       <use xlink:href="#DejaVuSerif-69" transform="translate(69.384766 0)"/>
       <use xlink:href="#DejaVuSerif-6c" transform="translate(101.367188 0)"/>
       <use xlink:href="#DejaVuSerif-65" transform="translate(133.349609 0)"/>
       <use xlink:href="#DejaVuSerif-20" transform="translate(192.529297 0)"/>
       <use xlink:href="#DejaVuSerif-73" transform="translate(224.316406 0)"/>
       <use xlink:href="#DejaVuSerif-69" transform="translate(275.634766 0)"/>
       <use xlink:href="#DejaVuSerif-7a" transform="translate(307.617188 0)"/>
       <use xlink:href="#DejaVuSerif-65" transform="translate(360.302734 0)"/>
       <use xlink:href="#DejaVuSerif-20" transform="translate(419.482422 0)"/>
       <use xlink:href="#DejaVuSerif-2b" transform="translate(451.269531 0)"/>
       <use xlink:href="#DejaVuSerif-20" transform="translate(535.058594 0)"/>
       <use xlink:href="#DejaVuSerif-42" transform="translate(566.845703 0)"/>
       <use xlink:href="#DejaVuSerif-69" transform="translate(640.332031 0)"/>
       <use xlink:href="#DejaVuSerif-6f" transform="translate(672.314453 0)"/>
       <use xlink:href="#DejaVuSerif-6d" transform="translate(732.519531 0)"/>
       <use xlink:href="#DejaVuSerif-65" transform="translate(827.34375 0)"/>
       <use xlink:href="#DejaVuSerif-29" transform="translate(886.523438 0)"/>
      </g>
     </g>
    </g>
    <g id="ytick_4">
     <g id="line2d_10">
      <path d="M 161.430781 229.671628 
L 550.565781 229.671628 
" clip-path="url(#p9e42ad07b5)" style="fill: none; stroke: #cccccc; stroke-linecap: round"/>
     </g>
     <g id="text_11">
      <!-- Random Forest (K-mers + -->
      <g style="fill: #262626" transform="translate(7.2 228.5278) scale(0.11 -0.11)">
       <use xlink:href="#DejaVuSerif-52"/>
       <use xlink:href="#DejaVuSerif-61" transform="translate(77.542969 0)"/>
       <use xlink:href="#DejaVuSerif-6e" transform="translate(137.162109 0)"/>
       <use xlink:href="#DejaVuSerif-64" transform="translate(201.566406 0)"/>
       <use xlink:href="#DejaVuSerif-6f" transform="translate(265.580078 0)"/>
       <use xlink:href="#DejaVuSerif-6d" transform="translate(325.785156 0)"/>
       <use xlink:href="#DejaVuSerif-20" transform="translate(420.609375 0)"/>
       <use xlink:href="#DejaVuSerif-46" transform="translate(452.396484 0)"/>
       <use xlink:href="#DejaVuSerif-6f" transform="translate(516.28125 0)"/>
       <use xlink:href="#DejaVuSerif-72" transform="translate(576.486328 0)"/>
       <use xlink:href="#DejaVuSerif-65" transform="translate(624.289062 0)"/>
       <use xlink:href="#DejaVuSerif-73" transform="translate(683.46875 0)"/>
       <use xlink:href="#DejaVuSerif-74" transform="translate(734.787109 0)"/>
       <use xlink:href="#DejaVuSerif-20" transform="translate(774.972656 0)"/>
       <use xlink:href="#DejaVuSerif-28" transform="translate(806.759766 0)"/>
       <use xlink:href="#DejaVuSerif-4b" transform="translate(845.773438 0)"/>
       <use xlink:href="#DejaVuSerif-2d" transform="translate(913.230469 0)"/>
       <use xlink:href="#DejaVuSerif-6d" transform="translate(947.019531 0)"/>
       <use xlink:href="#DejaVuSerif-65" transform="translate(1041.84375 0)"/>
       <use xlink:href="#DejaVuSerif-72" transform="translate(1101.023438 0)"/>
       <use xlink:href="#DejaVuSerif-73" transform="translate(1148.826172 0)"/>
       <use xlink:href="#DejaVuSerif-20" transform="translate(1200.144531 0)"/>
       <use xlink:href="#DejaVuSerif-2b" transform="translate(1231.931641 0)"/>
      </g>
      <!-- File size) -->
      <g style="fill: #262626" transform="translate(101.494062 240.845394) scale(0.11 -0.11)">
       <use xlink:href="#DejaVuSerif-46"/>
       <use xlink:href="#DejaVuSerif-69" transform="translate(69.384766 0)"/>
       <use xlink:href="#DejaVuSerif-6c" transform="translate(101.367188 0)"/>
       <use xlink:href="#DejaVuSerif-65" transform="translate(133.349609 0)"/>
       <use xlink:href="#DejaVuSerif-20" transform="translate(192.529297 0)"/>
       <use xlink:href="#DejaVuSerif-73" transform="translate(224.316406 0)"/>
       <use xlink:href="#DejaVuSerif-69" transform="translate(275.634766 0)"/>
       <use xlink:href="#DejaVuSerif-7a" transform="translate(307.617188 0)"/>
       <use xlink:href="#DejaVuSerif-65" transform="translate(360.302734 0)"/>
       <use xlink:href="#DejaVuSerif-29" transform="translate(419.482422 0)"/>
      </g>
     </g>
    </g>
    <g id="ytick_5">
     <g id="line2d_11">
      <path d="M 161.430781 194.035781 
L 550.565781 194.035781 
" clip-path="url(#p9e42ad07b5)" style="fill: none; stroke: #cccccc; stroke-linecap: round"/>
     </g>
     <g id="text_12">
      <!-- LinearRegression (File -->
      <g style="fill: #262626" transform="translate(24.610937 192.81375) scale(0.11 -0.11)">
       <defs>
        <path id="DejaVuSerif-4c" d="M 353 0 
L 353 331 
L 947 331 
L 947 4331 
L 353 4331 
L 353 4666 
L 2175 4666 
L 2175 4331 
L 1581 4331 
L 1581 384 
L 3713 384 
L 3713 1166 
L 4097 1166 
L 4097 0 
L 353 0 
z
" transform="scale(0.015625)"/>
        <path id="DejaVuSerif-67" d="M 3359 2988 
L 3359 72 
Q 3359 -644 2965 -1033 
Q 2572 -1422 1844 -1422 
Q 1516 -1422 1216 -1362 
Q 916 -1303 641 -1184 
L 641 -488 
L 941 -488 
Q 997 -813 1206 -963 
Q 1416 -1113 1806 -1113 
Q 2313 -1113 2548 -827 
Q 2784 -541 2784 72 
L 2784 519 
Q 2616 206 2355 57 
Q 2094 -91 1709 -91 
Q 1097 -91 708 395 
Q 319 881 319 1663 
Q 319 2444 706 2928 
Q 1094 3413 1709 3413 
Q 2094 3413 2355 3264 
Q 2616 3116 2784 2803 
L 2784 3322 
L 3909 3322 
L 3909 2988 
L 3359 2988 
z
M 2784 1825 
Q 2784 2422 2554 2737 
Q 2325 3053 1888 3053 
Q 1444 3053 1217 2703 
Q 991 2353 991 1663 
Q 991 975 1217 622 
Q 1444 269 1888 269 
Q 2325 269 2554 583 
Q 2784 897 2784 1497 
L 2784 1825 
z
" transform="scale(0.015625)"/>
       </defs>
       <use xlink:href="#DejaVuSerif-4c"/>
       <use xlink:href="#DejaVuSerif-69" transform="translate(66.40625 0)"/>
       <use xlink:href="#DejaVuSerif-6e" transform="translate(98.388672 0)"/>
       <use xlink:href="#DejaVuSerif-65" transform="translate(162.792969 0)"/>
       <use xlink:href="#DejaVuSerif-61" transform="translate(221.972656 0)"/>
       <use xlink:href="#DejaVuSerif-72" transform="translate(281.591797 0)"/>
       <use xlink:href="#DejaVuSerif-52" transform="translate(329.394531 0)"/>
       <use xlink:href="#DejaVuSerif-65" transform="translate(404.6875 0)"/>
       <use xlink:href="#DejaVuSerif-67" transform="translate(463.867188 0)"/>
       <use xlink:href="#DejaVuSerif-72" transform="translate(527.880859 0)"/>
       <use xlink:href="#DejaVuSerif-65" transform="translate(575.683594 0)"/>
       <use xlink:href="#DejaVuSerif-73" transform="translate(634.863281 0)"/>
       <use xlink:href="#DejaVuSerif-73" transform="translate(686.181641 0)"/>
       <use xlink:href="#DejaVuSerif-69" transform="translate(737.5 0)"/>
       <use xlink:href="#DejaVuSerif-6f" transform="translate(769.482422 0)"/>
       <use xlink:href="#DejaVuSerif-6e" transform="translate(829.6875 0)"/>
       <use xlink:href="#DejaVuSerif-20" transform="translate(894.091797 0)"/>
       <use xlink:href="#DejaVuSerif-28" transform="translate(925.878906 0)"/>
       <use xlink:href="#DejaVuSerif-46" transform="translate(964.892578 0)"/>
       <use xlink:href="#DejaVuSerif-69" transform="translate(1034.277344 0)"/>
       <use xlink:href="#DejaVuSerif-6c" transform="translate(1066.259766 0)"/>
       <use xlink:href="#DejaVuSerif-65" transform="translate(1098.242188 0)"/>
      </g>
      <!-- size) -->
      <g style="fill: #262626" transform="translate(126.170156 205.28775) scale(0.11 -0.11)">
       <use xlink:href="#DejaVuSerif-73"/>
       <use xlink:href="#DejaVuSerif-69" transform="translate(51.318359 0)"/>
       <use xlink:href="#DejaVuSerif-7a" transform="translate(83.300781 0)"/>
       <use xlink:href="#DejaVuSerif-65" transform="translate(135.986328 0)"/>
       <use xlink:href="#DejaVuSerif-29" transform="translate(195.166016 0)"/>
      </g>
     </g>
    </g>
    <g id="ytick_6">
     <g id="line2d_12">
      <path d="M 161.430781 158.399934 
L 550.565781 158.399934 
" clip-path="url(#p9e42ad07b5)" style="fill: none; stroke: #cccccc; stroke-linecap: round"/>
     </g>
     <g id="text_13">
      <!-- MGnify Heuristic -->
      <g style="fill: #262626" transform="translate(55.787344 162.579075) scale(0.11 -0.11)">
       <defs>
        <path id="DejaVuSerif-66" d="M 2753 4078 
L 2450 4078 
Q 2447 4313 2317 4434 
Q 2188 4556 1941 4556 
Q 1619 4556 1487 4379 
Q 1356 4203 1356 3750 
L 1356 3322 
L 2284 3322 
L 2284 2988 
L 1356 2988 
L 1356 331 
L 2094 331 
L 2094 0 
L 231 0 
L 231 331 
L 781 331 
L 781 2988 
L 231 2988 
L 231 3322 
L 781 3322 
L 781 3738 
Q 781 4294 1070 4578 
Q 1359 4863 1919 4863 
Q 2128 4863 2337 4825 
Q 2547 4788 2753 4709 
L 2753 4078 
z
" transform="scale(0.015625)"/>
       </defs>
       <use xlink:href="#DejaVuSerif-4d"/>
       <use xlink:href="#DejaVuSerif-47" transform="translate(102.392578 0)"/>
       <use xlink:href="#DejaVuSerif-6e" transform="translate(182.275391 0)"/>
       <use xlink:href="#DejaVuSerif-69" transform="translate(246.679688 0)"/>
       <use xlink:href="#DejaVuSerif-66" transform="translate(278.662109 0)"/>
       <use xlink:href="#DejaVuSerif-79" transform="translate(315.673828 0)"/>
       <use xlink:href="#DejaVuSerif-20" transform="translate(372.167969 0)"/>
       <use xlink:href="#DejaVuSerif-48" transform="translate(403.955078 0)"/>
       <use xlink:href="#DejaVuSerif-65" transform="translate(491.162109 0)"/>
       <use xlink:href="#DejaVuSerif-75" transform="translate(550.341797 0)"/>
       <use xlink:href="#DejaVuSerif-72" transform="translate(614.746094 0)"/>
       <use xlink:href="#DejaVuSerif-69" transform="translate(662.548828 0)"/>
       <use xlink:href="#DejaVuSerif-73" transform="translate(694.53125 0)"/>
       <use xlink:href="#DejaVuSerif-74" transform="translate(745.849609 0)"/>
       <use xlink:href="#DejaVuSerif-69" transform="translate(786.035156 0)"/>
       <use xlink:href="#DejaVuSerif-63" transform="translate(818.017578 0)"/>
      </g>
     </g>
    </g>
    <g id="ytick_7">
     <g id="line2d_13">
      <path d="M 161.430781 122.764087 
L 550.565781 122.764087 
" clip-path="url(#p9e42ad07b5)" style="fill: none; stroke: #cccccc; stroke-linecap: round"/>
     </g>
     <g id="text_14">
      <!-- Gaussian Processes -->
      <g style="fill: #262626" transform="translate(42.157656 121.620259) scale(0.11 -0.11)">
       <use xlink:href="#DejaVuSerif-47"/>
       <use xlink:href="#DejaVuSerif-61" transform="translate(79.882812 0)"/>
       <use xlink:href="#DejaVuSerif-75" transform="translate(139.501953 0)"/>
       <use xlink:href="#DejaVuSerif-73" transform="translate(203.90625 0)"/>
       <use xlink:href="#DejaVuSerif-73" transform="translate(255.224609 0)"/>
       <use xlink:href="#DejaVuSerif-69" transform="translate(306.542969 0)"/>
       <use xlink:href="#DejaVuSerif-61" transform="translate(338.525391 0)"/>
       <use xlink:href="#DejaVuSerif-6e" transform="translate(398.144531 0)"/>
       <use xlink:href="#DejaVuSerif-20" transform="translate(462.548828 0)"/>
       <use xlink:href="#DejaVuSerif-50" transform="translate(494.335938 0)"/>
       <use xlink:href="#DejaVuSerif-72" transform="translate(561.621094 0)"/>
       <use xlink:href="#DejaVuSerif-6f" transform="translate(609.423828 0)"/>
       <use xlink:href="#DejaVuSerif-63" transform="translate(669.628906 0)"/>
       <use xlink:href="#DejaVuSerif-65" transform="translate(725.634766 0)"/>
       <use xlink:href="#DejaVuSerif-73" transform="translate(784.814453 0)"/>
       <use xlink:href="#DejaVuSerif-73" transform="translate(836.132812 0)"/>
       <use xlink:href="#DejaVuSerif-65" transform="translate(887.451172 0)"/>
       <use xlink:href="#DejaVuSerif-73" transform="translate(946.630859 0)"/>
      </g>
      <!-- (Biome) -->
      <g style="fill: #262626" transform="translate(108.181719 133.937853) scale(0.11 -0.11)">
       <use xlink:href="#DejaVuSerif-28"/>
       <use xlink:href="#DejaVuSerif-42" transform="translate(39.013672 0)"/>
       <use xlink:href="#DejaVuSerif-69" transform="translate(112.5 0)"/>
       <use xlink:href="#DejaVuSerif-6f" transform="translate(144.482422 0)"/>
       <use xlink:href="#DejaVuSerif-6d" transform="translate(204.6875 0)"/>
       <use xlink:href="#DejaVuSerif-65" transform="translate(299.511719 0)"/>
       <use xlink:href="#DejaVuSerif-29" transform="translate(358.691406 0)"/>
      </g>
     </g>
    </g>
    <g id="ytick_8">
     <g id="line2d_14">
      <path d="M 161.430781 87.12824 
L 550.565781 87.12824 
" clip-path="url(#p9e42ad07b5)" style="fill: none; stroke: #cccccc; stroke-linecap: round"/>
     </g>
     <g id="text_15">
      <!-- Random Forest (Biome) -->
      <g style="fill: #262626" transform="translate(19.4375 91.307381) scale(0.11 -0.11)">
       <use xlink:href="#DejaVuSerif-52"/>
       <use xlink:href="#DejaVuSerif-61" transform="translate(77.542969 0)"/>
       <use xlink:href="#DejaVuSerif-6e" transform="translate(137.162109 0)"/>
       <use xlink:href="#DejaVuSerif-64" transform="translate(201.566406 0)"/>
       <use xlink:href="#DejaVuSerif-6f" transform="translate(265.580078 0)"/>
       <use xlink:href="#DejaVuSerif-6d" transform="translate(325.785156 0)"/>
       <use xlink:href="#DejaVuSerif-20" transform="translate(420.609375 0)"/>
       <use xlink:href="#DejaVuSerif-46" transform="translate(452.396484 0)"/>
       <use xlink:href="#DejaVuSerif-6f" transform="translate(516.28125 0)"/>
       <use xlink:href="#DejaVuSerif-72" transform="translate(576.486328 0)"/>
       <use xlink:href="#DejaVuSerif-65" transform="translate(624.289062 0)"/>
       <use xlink:href="#DejaVuSerif-73" transform="translate(683.46875 0)"/>
       <use xlink:href="#DejaVuSerif-74" transform="translate(734.787109 0)"/>
       <use xlink:href="#DejaVuSerif-20" transform="translate(774.972656 0)"/>
       <use xlink:href="#DejaVuSerif-28" transform="translate(806.759766 0)"/>
       <use xlink:href="#DejaVuSerif-42" transform="translate(845.773438 0)"/>
       <use xlink:href="#DejaVuSerif-69" transform="translate(919.259766 0)"/>
       <use xlink:href="#DejaVuSerif-6f" transform="translate(951.242188 0)"/>
       <use xlink:href="#DejaVuSerif-6d" transform="translate(1011.447266 0)"/>
       <use xlink:href="#DejaVuSerif-65" transform="translate(1106.271484 0)"/>
       <use xlink:href="#DejaVuSerif-29" transform="translate(1165.451172 0)"/>
      </g>
     </g>
    </g>
    <g id="ytick_9">
     <g id="line2d_15">
      <path d="M 161.430781 51.492393 
L 550.565781 51.492393 
" clip-path="url(#p9e42ad07b5)" style="fill: none; stroke: #cccccc; stroke-linecap: round"/>
     </g>
     <g id="text_16">
      <!-- Gaussian Processes -->
      <g style="fill: #262626" transform="translate(42.157656 44.189768) scale(0.11 -0.11)">
       <use xlink:href="#DejaVuSerif-47"/>
       <use xlink:href="#DejaVuSerif-61" transform="translate(79.882812 0)"/>
       <use xlink:href="#DejaVuSerif-75" transform="translate(139.501953 0)"/>
       <use xlink:href="#DejaVuSerif-73" transform="translate(203.90625 0)"/>
       <use xlink:href="#DejaVuSerif-73" transform="translate(255.224609 0)"/>
       <use xlink:href="#DejaVuSerif-69" transform="translate(306.542969 0)"/>
       <use xlink:href="#DejaVuSerif-61" transform="translate(338.525391 0)"/>
       <use xlink:href="#DejaVuSerif-6e" transform="translate(398.144531 0)"/>
       <use xlink:href="#DejaVuSerif-20" transform="translate(462.548828 0)"/>
       <use xlink:href="#DejaVuSerif-50" transform="translate(494.335938 0)"/>
       <use xlink:href="#DejaVuSerif-72" transform="translate(561.621094 0)"/>
       <use xlink:href="#DejaVuSerif-6f" transform="translate(609.423828 0)"/>
       <use xlink:href="#DejaVuSerif-63" transform="translate(669.628906 0)"/>
       <use xlink:href="#DejaVuSerif-65" transform="translate(725.634766 0)"/>
       <use xlink:href="#DejaVuSerif-73" transform="translate(784.814453 0)"/>
       <use xlink:href="#DejaVuSerif-73" transform="translate(836.132812 0)"/>
       <use xlink:href="#DejaVuSerif-65" transform="translate(887.451172 0)"/>
       <use xlink:href="#DejaVuSerif-73" transform="translate(946.630859 0)"/>
      </g>
      <!-- (K-mers + File size + -->
      <g style="fill: #262626" transform="translate(33.589687 56.507362) scale(0.11 -0.11)">
       <use xlink:href="#DejaVuSerif-28"/>
       <use xlink:href="#DejaVuSerif-4b" transform="translate(39.013672 0)"/>
       <use xlink:href="#DejaVuSerif-2d" transform="translate(106.470703 0)"/>
       <use xlink:href="#DejaVuSerif-6d" transform="translate(140.259766 0)"/>
       <use xlink:href="#DejaVuSerif-65" transform="translate(235.083984 0)"/>
       <use xlink:href="#DejaVuSerif-72" transform="translate(294.263672 0)"/>
       <use xlink:href="#DejaVuSerif-73" transform="translate(342.066406 0)"/>
       <use xlink:href="#DejaVuSerif-20" transform="translate(393.384766 0)"/>
       <use xlink:href="#DejaVuSerif-2b" transform="translate(425.171875 0)"/>
       <use xlink:href="#DejaVuSerif-20" transform="translate(508.960938 0)"/>
       <use xlink:href="#DejaVuSerif-46" transform="translate(540.748047 0)"/>
       <use xlink:href="#DejaVuSerif-69" transform="translate(610.132812 0)"/>
       <use xlink:href="#DejaVuSerif-6c" transform="translate(642.115234 0)"/>
       <use xlink:href="#DejaVuSerif-65" transform="translate(674.097656 0)"/>
       <use xlink:href="#DejaVuSerif-20" transform="translate(733.277344 0)"/>
       <use xlink:href="#DejaVuSerif-73" transform="translate(765.064453 0)"/>
       <use xlink:href="#DejaVuSerif-69" transform="translate(816.382812 0)"/>
       <use xlink:href="#DejaVuSerif-7a" transform="translate(848.365234 0)"/>
       <use xlink:href="#DejaVuSerif-65" transform="translate(901.050781 0)"/>
       <use xlink:href="#DejaVuSerif-20" transform="translate(960.230469 0)"/>
       <use xlink:href="#DejaVuSerif-2b" transform="translate(992.017578 0)"/>
      </g>
      <!-- Biome) -->
      <g style="fill: #262626" transform="translate(112.473437 68.824955) scale(0.11 -0.11)">
       <use xlink:href="#DejaVuSerif-42"/>
       <use xlink:href="#DejaVuSerif-69" transform="translate(73.486328 0)"/>
       <use xlink:href="#DejaVuSerif-6f" transform="translate(105.46875 0)"/>
       <use xlink:href="#DejaVuSerif-6d" transform="translate(165.673828 0)"/>
       <use xlink:href="#DejaVuSerif-65" transform="translate(260.498047 0)"/>
       <use xlink:href="#DejaVuSerif-29" transform="translate(319.677734 0)"/>
      </g>
     </g>
    </g>
   </g>
   <g id="patch_3">
    <path d="M 161.430781 350.833509 
L 471.263774 350.833509 
L 471.263774 322.324831 
L 161.430781 322.324831 
z
" clip-path="url(#p9e42ad07b5)" style="fill: #87ceeb; stroke: #000000; stroke-linejoin: miter"/>
   </g>
   <g id="patch_4">
    <path d="M 161.430781 315.197661 
L 325.509228 315.197661 
L 325.509228 286.688984 
L 161.430781 286.688984 
z
" clip-path="url(#p9e42ad07b5)" style="fill: #87ceeb; stroke: #000000; stroke-linejoin: miter"/>
   </g>
   <g id="patch_5">
    <path d="M 161.430781 279.561814 
L 282.551292 279.561814 
L 282.551292 251.053137 
L 161.430781 251.053137 
z
" clip-path="url(#p9e42ad07b5)" style="fill: #87ceeb; stroke: #000000; stroke-linejoin: miter"/>
   </g>
   <g id="patch_6">
    <path d="M 161.430781 243.925967 
L 282.345436 243.925967 
L 282.345436 215.41729 
L 161.430781 215.41729 
z
" clip-path="url(#p9e42ad07b5)" style="fill: #87ceeb; stroke: #000000; stroke-linejoin: miter"/>
   </g>
   <g id="patch_7">
    <path d="M 161.430781 208.29012 
L 281.556694 208.29012 
L 281.556694 179.781442 
L 161.430781 179.781442 
z
" clip-path="url(#p9e42ad07b5)" style="fill: #87ceeb; stroke: #000000; stroke-linejoin: miter"/>
   </g>
   <g id="patch_8">
    <path d="M 161.430781 172.654273 
L 273.688962 172.654273 
L 273.688962 144.145595 
L 161.430781 144.145595 
z
" clip-path="url(#p9e42ad07b5)" style="fill: #87ceeb; stroke: #000000; stroke-linejoin: miter"/>
   </g>
   <g id="patch_9">
    <path d="M 161.430781 137.018426 
L 268.964034 137.018426 
L 268.964034 108.509748 
L 161.430781 108.509748 
z
" clip-path="url(#p9e42ad07b5)" style="fill: #87ceeb; stroke: #000000; stroke-linejoin: miter"/>
   </g>
   <g id="patch_10">
    <path d="M 161.430781 101.382579 
L 263.682077 101.382579 
L 263.682077 72.873901 
L 161.430781 72.873901 
z
" clip-path="url(#p9e42ad07b5)" style="fill: #87ceeb; stroke: #000000; stroke-linejoin: miter"/>
   </g>
   <g id="patch_11">
    <path d="M 161.430781 65.746732 
L 257.564221 65.746732 
L 257.564221 37.238054 
L 161.430781 37.238054 
z
" clip-path="url(#p9e42ad07b5)" style="fill: #87ceeb; stroke: #000000; stroke-linejoin: miter"/>
   </g>
   <g id="LineCollection_1">
    <path d="M 425.034805 336.57917 
L 532.035543 336.57917 
" clip-path="url(#p9e42ad07b5)" style="fill: none; stroke: #1a1a1a; stroke-width: 1.5"/>
    <path d="M 277.613231 300.943323 
L 392.773138 300.943323 
" clip-path="url(#p9e42ad07b5)" style="fill: none; stroke: #1a1a1a; stroke-width: 1.5"/>
    <path d="M 241.911453 265.307475 
L 338.035816 265.307475 
" clip-path="url(#p9e42ad07b5)" style="fill: none; stroke: #1a1a1a; stroke-width: 1.5"/>
    <path d="M 242.517835 229.671628 
L 334.834408 229.671628 
" clip-path="url(#p9e42ad07b5)" style="fill: none; stroke: #1a1a1a; stroke-width: 1.5"/>
    <path d="M 244.718901 194.035781 
L 326.855254 194.035781 
" clip-path="url(#p9e42ad07b5)" style="fill: none; stroke: #1a1a1a; stroke-width: 1.5"/>
    <path d="M 243.833155 158.399934 
L 314.548849 158.399934 
" clip-path="url(#p9e42ad07b5)" style="fill: none; stroke: #1a1a1a; stroke-width: 1.5"/>
    <path d="M 234.337485 122.764087 
L 314.964 122.764087 
" clip-path="url(#p9e42ad07b5)" style="fill: none; stroke: #1a1a1a; stroke-width: 1.5"/>
    <path d="M 226.332709 87.12824 
L 321.062804 87.12824 
" clip-path="url(#p9e42ad07b5)" style="fill: none; stroke: #1a1a1a; stroke-width: 1.5"/>
    <path d="M 232.91032 51.492393 
L 287.77077 51.492393 
" clip-path="url(#p9e42ad07b5)" style="fill: none; stroke: #1a1a1a; stroke-width: 1.5"/>
   </g>
   <g id="line2d_16">
    <defs>
     <path id="mdf66f9b7ac" d="M 0 5 
L 0 -5 
" style="stroke: #1a1a1a"/>
    </defs>
    <g clip-path="url(#p9e42ad07b5)">
     <use xlink:href="#mdf66f9b7ac" x="425.034805" y="336.57917" style="fill: #4c72b0; stroke: #1a1a1a"/>
     <use xlink:href="#mdf66f9b7ac" x="277.613231" y="300.943323" style="fill: #4c72b0; stroke: #1a1a1a"/>
     <use xlink:href="#mdf66f9b7ac" x="241.911453" y="265.307475" style="fill: #4c72b0; stroke: #1a1a1a"/>
     <use xlink:href="#mdf66f9b7ac" x="242.517835" y="229.671628" style="fill: #4c72b0; stroke: #1a1a1a"/>
     <use xlink:href="#mdf66f9b7ac" x="244.718901" y="194.035781" style="fill: #4c72b0; stroke: #1a1a1a"/>
     <use xlink:href="#mdf66f9b7ac" x="243.833155" y="158.399934" style="fill: #4c72b0; stroke: #1a1a1a"/>
     <use xlink:href="#mdf66f9b7ac" x="234.337485" y="122.764087" style="fill: #4c72b0; stroke: #1a1a1a"/>
     <use xlink:href="#mdf66f9b7ac" x="226.332709" y="87.12824" style="fill: #4c72b0; stroke: #1a1a1a"/>
     <use xlink:href="#mdf66f9b7ac" x="232.91032" y="51.492393" style="fill: #4c72b0; stroke: #1a1a1a"/>
    </g>
   </g>
   <g id="line2d_17">
    <g clip-path="url(#p9e42ad07b5)">
     <use xlink:href="#mdf66f9b7ac" x="532.035543" y="336.57917" style="fill: #4c72b0; stroke: #1a1a1a"/>
     <use xlink:href="#mdf66f9b7ac" x="392.773138" y="300.943323" style="fill: #4c72b0; stroke: #1a1a1a"/>
     <use xlink:href="#mdf66f9b7ac" x="338.035816" y="265.307475" style="fill: #4c72b0; stroke: #1a1a1a"/>
     <use xlink:href="#mdf66f9b7ac" x="334.834408" y="229.671628" style="fill: #4c72b0; stroke: #1a1a1a"/>
     <use xlink:href="#mdf66f9b7ac" x="326.855254" y="194.035781" style="fill: #4c72b0; stroke: #1a1a1a"/>
     <use xlink:href="#mdf66f9b7ac" x="314.548849" y="158.399934" style="fill: #4c72b0; stroke: #1a1a1a"/>
     <use xlink:href="#mdf66f9b7ac" x="314.964" y="122.764087" style="fill: #4c72b0; stroke: #1a1a1a"/>
     <use xlink:href="#mdf66f9b7ac" x="321.062804" y="87.12824" style="fill: #4c72b0; stroke: #1a1a1a"/>
     <use xlink:href="#mdf66f9b7ac" x="287.77077" y="51.492393" style="fill: #4c72b0; stroke: #1a1a1a"/>
    </g>
   </g>
   <g id="patch_12">
    <path d="M 161.430781 366.513281 
L 161.430781 21.558281 
" style="fill: none; stroke: #cccccc; stroke-width: 1.5; stroke-linejoin: miter; stroke-linecap: square"/>
   </g>
   <g id="patch_13">
    <path d="M 550.565781 366.513281 
L 550.565781 21.558281 
" style="fill: none; stroke: #cccccc; stroke-width: 1.5; stroke-linejoin: miter; stroke-linecap: square"/>
   </g>
   <g id="patch_14">
    <path d="M 161.430781 366.513281 
L 550.565781 366.513281 
" style="fill: none; stroke: #cccccc; stroke-width: 1.5; stroke-linejoin: miter; stroke-linecap: square"/>
   </g>
   <g id="patch_15">
    <path d="M 161.430781 21.558281 
L 550.565781 21.558281 
" style="fill: none; stroke: #cccccc; stroke-width: 1.5; stroke-linejoin: miter; stroke-linecap: square"/>
   </g>
   <g id="text_17">
    <!-- Predicted memory cost per 1000 Jobs -->
    <g style="fill: #262626" transform="translate(250.907891 15.558281) scale(0.11 -0.11)">
     <defs>
      <path id="DejaVuSerif-4a" d="M -538 -1119 
L -538 -384 
L -181 -384 
Q -172 -694 -34 -845 
Q 103 -997 378 -997 
Q 750 -997 897 -762 
Q 1044 -528 1044 153 
L 1044 4331 
L 319 4331 
L 319 4666 
L 2272 4666 
L 2272 4331 
L 1678 4331 
L 1678 128 
Q 1678 -644 1368 -987 
Q 1059 -1331 372 -1331 
Q 150 -1331 -79 -1278 
Q -309 -1225 -538 -1119 
z
" transform="scale(0.015625)"/>
     </defs>
     <use xlink:href="#DejaVuSerif-50"/>
     <use xlink:href="#DejaVuSerif-72" transform="translate(67.285156 0)"/>
     <use xlink:href="#DejaVuSerif-65" transform="translate(115.087891 0)"/>
     <use xlink:href="#DejaVuSerif-64" transform="translate(174.267578 0)"/>
     <use xlink:href="#DejaVuSerif-69" transform="translate(238.28125 0)"/>
     <use xlink:href="#DejaVuSerif-63" transform="translate(270.263672 0)"/>
     <use xlink:href="#DejaVuSerif-74" transform="translate(326.269531 0)"/>
     <use xlink:href="#DejaVuSerif-65" transform="translate(366.455078 0)"/>
     <use xlink:href="#DejaVuSerif-64" transform="translate(425.634766 0)"/>
     <use xlink:href="#DejaVuSerif-20" transform="translate(489.648438 0)"/>
     <use xlink:href="#DejaVuSerif-6d" transform="translate(521.435547 0)"/>
     <use xlink:href="#DejaVuSerif-65" transform="translate(616.259766 0)"/>
     <use xlink:href="#DejaVuSerif-6d" transform="translate(675.439453 0)"/>
     <use xlink:href="#DejaVuSerif-6f" transform="translate(770.263672 0)"/>
     <use xlink:href="#DejaVuSerif-72" transform="translate(830.46875 0)"/>
     <use xlink:href="#DejaVuSerif-79" transform="translate(878.271484 0)"/>
     <use xlink:href="#DejaVuSerif-20" transform="translate(934.765625 0)"/>
     <use xlink:href="#DejaVuSerif-63" transform="translate(966.552734 0)"/>
     <use xlink:href="#DejaVuSerif-6f" transform="translate(1022.558594 0)"/>
     <use xlink:href="#DejaVuSerif-73" transform="translate(1082.763672 0)"/>
     <use xlink:href="#DejaVuSerif-74" transform="translate(1134.082031 0)"/>
     <use xlink:href="#DejaVuSerif-20" transform="translate(1174.267578 0)"/>
     <use xlink:href="#DejaVuSerif-70" transform="translate(1206.054688 0)"/>
     <use xlink:href="#DejaVuSerif-65" transform="translate(1270.068359 0)"/>
     <use xlink:href="#DejaVuSerif-72" transform="translate(1329.248047 0)"/>
     <use xlink:href="#DejaVuSerif-20" transform="translate(1377.050781 0)"/>
     <use xlink:href="#DejaVuSerif-31" transform="translate(1408.837891 0)"/>
     <use xlink:href="#DejaVuSerif-30" transform="translate(1472.460938 0)"/>
     <use xlink:href="#DejaVuSerif-30" transform="translate(1536.083984 0)"/>
     <use xlink:href="#DejaVuSerif-30" transform="translate(1599.707031 0)"/>
     <use xlink:href="#DejaVuSerif-20" transform="translate(1663.330078 0)"/>
     <use xlink:href="#DejaVuSerif-4a" transform="translate(1695.117188 0)"/>
     <use xlink:href="#DejaVuSerif-6f" transform="translate(1735.205078 0)"/>
     <use xlink:href="#DejaVuSerif-62" transform="translate(1795.410156 0)"/>
     <use xlink:href="#DejaVuSerif-73" transform="translate(1859.423828 0)"/>
    </g>
   </g>
  </g>
  <g id="axes_2">
   <g id="patch_16">
    <path d="M 578.780781 366.513281 
L 967.915781 366.513281 
L 967.915781 21.558281 
L 578.780781 21.558281 
z
" style="fill: #ffffff"/>
   </g>
   <g id="matplotlib.axis_3">
    <g id="xtick_7">
     <g id="line2d_18">
      <path d="M 578.780781 366.513281 
L 578.780781 21.558281 
" clip-path="url(#pf254f6778c)" style="fill: none; stroke: #cccccc; stroke-linecap: round"/>
     </g>
     <g id="text_18">
      <!-- 4.0 -->
      <g style="fill: #262626" transform="translate(570.034063 384.371562) scale(0.11 -0.11)">
       <defs>
        <path id="DejaVuSerif-2e" d="M 603 325 
Q 603 500 722 622 
Q 841 744 1019 744 
Q 1191 744 1312 622 
Q 1434 500 1434 325 
Q 1434 153 1312 31 
Q 1191 -91 1019 -91 
Q 841 -91 722 29 
Q 603 150 603 325 
z
" transform="scale(0.015625)"/>
       </defs>
       <use xlink:href="#DejaVuSerif-34"/>
       <use xlink:href="#DejaVuSerif-2e" transform="translate(63.623047 0)"/>
       <use xlink:href="#DejaVuSerif-30" transform="translate(95.410156 0)"/>
      </g>
     </g>
    </g>
    <g id="xtick_8">
     <g id="line2d_19">
      <path d="M 643.636615 366.513281 
L 643.636615 21.558281 
" clip-path="url(#pf254f6778c)" style="fill: none; stroke: #cccccc; stroke-linecap: round"/>
     </g>
     <g id="text_19">
      <!-- 4.5 -->
      <g style="fill: #262626" transform="translate(634.889896 384.371562) scale(0.11 -0.11)">
       <defs>
        <path id="DejaVuSerif-35" d="M 3219 4666 
L 3219 4153 
L 1081 4153 
L 1081 2816 
Q 1244 2928 1461 2984 
Q 1678 3041 1947 3041 
Q 2703 3041 3140 2622 
Q 3578 2203 3578 1478 
Q 3578 738 3136 323 
Q 2694 -91 1894 -91 
Q 1572 -91 1234 -12 
Q 897 66 544 225 
L 544 1131 
L 897 1131 
Q 925 688 1179 453 
Q 1434 219 1894 219 
Q 2388 219 2653 544 
Q 2919 869 2919 1478 
Q 2919 2084 2655 2407 
Q 2391 2731 1894 2731 
Q 1613 2731 1398 2631 
Q 1184 2531 1019 2322 
L 750 2322 
L 750 4666 
L 3219 4666 
z
" transform="scale(0.015625)"/>
       </defs>
       <use xlink:href="#DejaVuSerif-34"/>
       <use xlink:href="#DejaVuSerif-2e" transform="translate(63.623047 0)"/>
       <use xlink:href="#DejaVuSerif-35" transform="translate(95.410156 0)"/>
      </g>
     </g>
    </g>
    <g id="xtick_9">
     <g id="line2d_20">
      <path d="M 708.492448 366.513281 
L 708.492448 21.558281 
" clip-path="url(#pf254f6778c)" style="fill: none; stroke: #cccccc; stroke-linecap: round"/>
     </g>
     <g id="text_20">
      <!-- 5.0 -->
      <g style="fill: #262626" transform="translate(699.745729 384.371562) scale(0.11 -0.11)">
       <use xlink:href="#DejaVuSerif-35"/>
       <use xlink:href="#DejaVuSerif-2e" transform="translate(63.623047 0)"/>
       <use xlink:href="#DejaVuSerif-30" transform="translate(95.410156 0)"/>
      </g>
     </g>
    </g>
    <g id="xtick_10">
     <g id="line2d_21">
      <path d="M 773.348281 366.513281 
L 773.348281 21.558281 
" clip-path="url(#pf254f6778c)" style="fill: none; stroke: #cccccc; stroke-linecap: round"/>
     </g>
     <g id="text_21">
      <!-- 5.5 -->
      <g style="fill: #262626" transform="translate(764.601563 384.371562) scale(0.11 -0.11)">
       <use xlink:href="#DejaVuSerif-35"/>
       <use xlink:href="#DejaVuSerif-2e" transform="translate(63.623047 0)"/>
       <use xlink:href="#DejaVuSerif-35" transform="translate(95.410156 0)"/>
      </g>
     </g>
    </g>
    <g id="xtick_11">
     <g id="line2d_22">
      <path d="M 838.204115 366.513281 
L 838.204115 21.558281 
" clip-path="url(#pf254f6778c)" style="fill: none; stroke: #cccccc; stroke-linecap: round"/>
     </g>
     <g id="text_22">
      <!-- 6.0 -->
      <g style="fill: #262626" transform="translate(829.457396 384.371562) scale(0.11 -0.11)">
       <use xlink:href="#DejaVuSerif-36"/>
       <use xlink:href="#DejaVuSerif-2e" transform="translate(63.623047 0)"/>
       <use xlink:href="#DejaVuSerif-30" transform="translate(95.410156 0)"/>
      </g>
     </g>
    </g>
    <g id="xtick_12">
     <g id="line2d_23">
      <path d="M 903.059948 366.513281 
L 903.059948 21.558281 
" clip-path="url(#pf254f6778c)" style="fill: none; stroke: #cccccc; stroke-linecap: round"/>
     </g>
     <g id="text_23">
      <!-- 6.5 -->
      <g style="fill: #262626" transform="translate(894.313229 384.371562) scale(0.11 -0.11)">
       <use xlink:href="#DejaVuSerif-36"/>
       <use xlink:href="#DejaVuSerif-2e" transform="translate(63.623047 0)"/>
       <use xlink:href="#DejaVuSerif-35" transform="translate(95.410156 0)"/>
      </g>
     </g>
    </g>
    <g id="xtick_13">
     <g id="line2d_24">
      <path d="M 967.915781 366.513281 
L 967.915781 21.558281 
" clip-path="url(#pf254f6778c)" style="fill: none; stroke: #cccccc; stroke-linecap: round"/>
     </g>
     <g id="text_24">
      <!-- 7.0 -->
      <g style="fill: #262626" transform="translate(959.169063 384.371562) scale(0.11 -0.11)">
       <defs>
        <path id="DejaVuSerif-37" d="M 3609 4347 
L 1784 0 
L 1319 0 
L 3059 4153 
L 903 4153 
L 903 3578 
L 538 3578 
L 538 4666 
L 3609 4666 
L 3609 4347 
z
" transform="scale(0.015625)"/>
       </defs>
       <use xlink:href="#DejaVuSerif-37"/>
       <use xlink:href="#DejaVuSerif-2e" transform="translate(63.623047 0)"/>
       <use xlink:href="#DejaVuSerif-30" transform="translate(95.410156 0)"/>
      </g>
     </g>
    </g>
    <g id="text_25">
     <!-- Memory saved per 1000 jobs (Million GB·h) -->
     <g style="fill: #262626" transform="translate(662.508438 398.257656) scale(0.1 -0.1)">
      <defs>
       <path id="DejaVuSerif-76" d="M 1581 0 
L 359 2988 
L -19 2988 
L -19 3322 
L 1509 3322 
L 1509 2988 
L 978 2988 
L 1913 703 
L 2847 2988 
L 2350 2988 
L 2350 3322 
L 3597 3322 
L 3597 2988 
L 3225 2988 
L 2003 0 
L 1581 0 
z
" transform="scale(0.015625)"/>
      </defs>
      <use xlink:href="#DejaVuSerif-4d"/>
      <use xlink:href="#DejaVuSerif-65" transform="translate(102.392578 0)"/>
      <use xlink:href="#DejaVuSerif-6d" transform="translate(161.572266 0)"/>
      <use xlink:href="#DejaVuSerif-6f" transform="translate(256.396484 0)"/>
      <use xlink:href="#DejaVuSerif-72" transform="translate(316.601562 0)"/>
      <use xlink:href="#DejaVuSerif-79" transform="translate(364.404297 0)"/>
      <use xlink:href="#DejaVuSerif-20" transform="translate(420.898438 0)"/>
      <use xlink:href="#DejaVuSerif-73" transform="translate(452.685547 0)"/>
      <use xlink:href="#DejaVuSerif-61" transform="translate(504.003906 0)"/>
      <use xlink:href="#DejaVuSerif-76" transform="translate(563.623047 0)"/>
      <use xlink:href="#DejaVuSerif-65" transform="translate(620.117188 0)"/>
      <use xlink:href="#DejaVuSerif-64" transform="translate(679.296875 0)"/>
      <use xlink:href="#DejaVuSerif-20" transform="translate(743.310547 0)"/>
      <use xlink:href="#DejaVuSerif-70" transform="translate(775.097656 0)"/>
      <use xlink:href="#DejaVuSerif-65" transform="translate(839.111328 0)"/>
      <use xlink:href="#DejaVuSerif-72" transform="translate(898.291016 0)"/>
      <use xlink:href="#DejaVuSerif-20" transform="translate(946.09375 0)"/>
      <use xlink:href="#DejaVuSerif-31" transform="translate(977.880859 0)"/>
      <use xlink:href="#DejaVuSerif-30" transform="translate(1041.503906 0)"/>
      <use xlink:href="#DejaVuSerif-30" transform="translate(1105.126953 0)"/>
      <use xlink:href="#DejaVuSerif-30" transform="translate(1168.75 0)"/>
      <use xlink:href="#DejaVuSerif-20" transform="translate(1232.373047 0)"/>
      <use xlink:href="#DejaVuSerif-6a" transform="translate(1264.160156 0)"/>
      <use xlink:href="#DejaVuSerif-6f" transform="translate(1295.166016 0)"/>
      <use xlink:href="#DejaVuSerif-62" transform="translate(1355.371094 0)"/>
      <use xlink:href="#DejaVuSerif-73" transform="translate(1419.384766 0)"/>
      <use xlink:href="#DejaVuSerif-20" transform="translate(1470.703125 0)"/>
      <use xlink:href="#DejaVuSerif-28" transform="translate(1502.490234 0)"/>
      <use xlink:href="#DejaVuSerif-4d" transform="translate(1541.503906 0)"/>
      <use xlink:href="#DejaVuSerif-69" transform="translate(1643.896484 0)"/>
      <use xlink:href="#DejaVuSerif-6c" transform="translate(1675.878906 0)"/>
      <use xlink:href="#DejaVuSerif-6c" transform="translate(1707.861328 0)"/>
      <use xlink:href="#DejaVuSerif-69" transform="translate(1739.84375 0)"/>
      <use xlink:href="#DejaVuSerif-6f" transform="translate(1771.826172 0)"/>
      <use xlink:href="#DejaVuSerif-6e" transform="translate(1832.03125 0)"/>
      <use xlink:href="#DejaVuSerif-20" transform="translate(1896.435547 0)"/>
      <use xlink:href="#DejaVuSerif-47" transform="translate(1928.222656 0)"/>
      <use xlink:href="#DejaVuSerif-42" transform="translate(2008.105469 0)"/>
      <use xlink:href="#DejaVuSerif-b7" transform="translate(2081.591797 0)"/>
      <use xlink:href="#DejaVuSerif-68" transform="translate(2113.378906 0)"/>
      <use xlink:href="#DejaVuSerif-29" transform="translate(2177.783203 0)"/>
     </g>
    </g>
   </g>
   <g id="matplotlib.axis_4">
    <g id="ytick_10">
     <g id="line2d_25">
      <path d="M 578.780781 336.57917 
L 967.915781 336.57917 
" clip-path="url(#pf254f6778c)" style="fill: none; stroke: #cccccc; stroke-linecap: round"/>
     </g>
    </g>
    <g id="ytick_11">
     <g id="line2d_26">
      <path d="M 578.780781 300.943323 
L 967.915781 300.943323 
" clip-path="url(#pf254f6778c)" style="fill: none; stroke: #cccccc; stroke-linecap: round"/>
     </g>
    </g>
    <g id="ytick_12">
     <g id="line2d_27">
      <path d="M 578.780781 265.307475 
L 967.915781 265.307475 
" clip-path="url(#pf254f6778c)" style="fill: none; stroke: #cccccc; stroke-linecap: round"/>
     </g>
    </g>
    <g id="ytick_13">
     <g id="line2d_28">
      <path d="M 578.780781 229.671628 
L 967.915781 229.671628 
" clip-path="url(#pf254f6778c)" style="fill: none; stroke: #cccccc; stroke-linecap: round"/>
     </g>
    </g>
    <g id="ytick_14">
     <g id="line2d_29">
      <path d="M 578.780781 194.035781 
L 967.915781 194.035781 
" clip-path="url(#pf254f6778c)" style="fill: none; stroke: #cccccc; stroke-linecap: round"/>
     </g>
    </g>
    <g id="ytick_15">
     <g id="line2d_30">
      <path d="M 578.780781 158.399934 
L 967.915781 158.399934 
" clip-path="url(#pf254f6778c)" style="fill: none; stroke: #cccccc; stroke-linecap: round"/>
     </g>
    </g>
    <g id="ytick_16">
     <g id="line2d_31">
      <path d="M 578.780781 122.764087 
L 967.915781 122.764087 
" clip-path="url(#pf254f6778c)" style="fill: none; stroke: #cccccc; stroke-linecap: round"/>
     </g>
    </g>
    <g id="ytick_17">
     <g id="line2d_32">
      <path d="M 578.780781 87.12824 
L 967.915781 87.12824 
" clip-path="url(#pf254f6778c)" style="fill: none; stroke: #cccccc; stroke-linecap: round"/>
     </g>
    </g>
    <g id="ytick_18">
     <g id="line2d_33">
      <path d="M 578.780781 51.492393 
L 967.915781 51.492393 
" clip-path="url(#pf254f6778c)" style="fill: none; stroke: #cccccc; stroke-linecap: round"/>
     </g>
    </g>
   </g>
   <g id="patch_17">
    <path d="M 59.934115 350.833509 
L 59.934115 350.833509 
L 59.934115 322.324831 
L 59.934115 322.324831 
z
" clip-path="url(#pf254f6778c)" style="fill: #90ee90; stroke: #000000; stroke-linejoin: miter"/>
   </g>
   <g id="patch_18">
    <path d="M 59.934115 315.197661 
L 611.044713 315.197661 
L 611.044713 286.688984 
L 59.934115 286.688984 
z
" clip-path="url(#pf254f6778c)" style="fill: #90ee90; stroke: #000000; stroke-linejoin: miter"/>
   </g>
   <g id="patch_19">
    <path d="M 59.934115 279.561814 
L 773.472398 279.561814 
L 773.472398 251.053137 
L 59.934115 251.053137 
z
" clip-path="url(#pf254f6778c)" style="fill: #90ee90; stroke: #000000; stroke-linejoin: miter"/>
   </g>
   <g id="patch_20">
    <path d="M 59.934115 243.925967 
L 774.250757 243.925967 
L 774.250757 215.41729 
L 59.934115 215.41729 
z
" clip-path="url(#pf254f6778c)" style="fill: #90ee90; stroke: #000000; stroke-linejoin: miter"/>
   </g>
   <g id="patch_21">
    <path d="M 59.934115 208.29012 
L 777.23306 208.29012 
L 777.23306 179.781442 
L 59.934115 179.781442 
z
" clip-path="url(#pf254f6778c)" style="fill: #90ee90; stroke: #000000; stroke-linejoin: miter"/>
   </g>
   <g id="patch_22">
    <path d="M 59.934115 172.654273 
L 806.981638 172.654273 
L 806.981638 144.145595 
L 59.934115 144.145595 
z
" clip-path="url(#pf254f6778c)" style="fill: #90ee90; stroke: #000000; stroke-linejoin: miter"/>
   </g>
   <g id="patch_23">
    <path d="M 59.934115 137.018426 
L 824.847003 137.018426 
L 824.847003 108.509748 
L 59.934115 108.509748 
z
" clip-path="url(#pf254f6778c)" style="fill: #90ee90; stroke: #000000; stroke-linejoin: miter"/>
   </g>
   <g id="patch_24">
    <path d="M 59.934115 101.382579 
L 844.818541 101.382579 
L 844.818541 72.873901 
L 59.934115 72.873901 
z
" clip-path="url(#pf254f6778c)" style="fill: #90ee90; stroke: #000000; stroke-linejoin: miter"/>
   </g>
   <g id="patch_25">
    <path d="M 59.934115 65.746732 
L 867.950686 65.746732 
L 867.950686 37.238054 
L 59.934115 37.238054 
z
" clip-path="url(#pf254f6778c)" style="fill: #90ee90; stroke: #000000; stroke-linejoin: miter"/>
   </g>
   <g id="patch_26">
    <path d="M 578.780781 366.513281 
L 578.780781 21.558281 
" style="fill: none; stroke: #cccccc; stroke-width: 1.5; stroke-linejoin: miter; stroke-linecap: square"/>
   </g>
   <g id="patch_27">
    <path d="M 967.915781 366.513281 
L 967.915781 21.558281 
" style="fill: none; stroke: #cccccc; stroke-width: 1.5; stroke-linejoin: miter; stroke-linecap: square"/>
   </g>
   <g id="patch_28">
    <path d="M 578.780781 366.513281 
L 967.915781 366.513281 
" style="fill: none; stroke: #cccccc; stroke-width: 1.5; stroke-linejoin: miter; stroke-linecap: square"/>
   </g>
   <g id="patch_29">
    <path d="M 578.780781 21.558281 
L 967.915781 21.558281 
" style="fill: none; stroke: #cccccc; stroke-width: 1.5; stroke-linejoin: miter; stroke-linecap: square"/>
   </g>
   <g id="text_26">
    <!-- Memory saved relative to highest predictor (9.03 Million GB·h) -->
    <g style="fill: #262626" transform="translate(597.099922 15.558281) scale(0.11 -0.11)">
     <defs>
      <path id="DejaVuSerif-39" d="M 2994 2091 
Q 2784 1856 2512 1740 
Q 2241 1625 1900 1625 
Q 1206 1625 804 2044 
Q 403 2463 403 3188 
Q 403 3897 839 4323 
Q 1275 4750 2003 4750 
Q 2794 4750 3217 4161 
Q 3641 3572 3641 2478 
Q 3641 1253 3137 581 
Q 2634 -91 1722 -91 
Q 1475 -91 1203 -44 
Q 931 3 647 97 
L 647 872 
L 997 872 
Q 1038 556 1241 387 
Q 1444 219 1784 219 
Q 2391 219 2687 676 
Q 2984 1134 2994 2091 
z
M 1978 4441 
Q 1534 4441 1298 4117 
Q 1063 3794 1063 3188 
Q 1063 2581 1298 2256 
Q 1534 1931 1978 1931 
Q 2422 1931 2658 2245 
Q 2894 2559 2894 3150 
Q 2894 3772 2656 4106 
Q 2419 4441 1978 4441 
z
" transform="scale(0.015625)"/>
      <path id="DejaVuSerif-33" d="M 622 4469 
Q 988 4606 1323 4678 
Q 1659 4750 1953 4750 
Q 2638 4750 3022 4454 
Q 3406 4159 3406 3634 
Q 3406 3213 3140 2930 
Q 2875 2647 2388 2547 
Q 2963 2466 3280 2130 
Q 3597 1794 3597 1259 
Q 3597 606 3158 257 
Q 2719 -91 1894 -91 
Q 1528 -91 1179 -12 
Q 831 66 488 225 
L 488 1131 
L 838 1131 
Q 869 681 1141 450 
Q 1413 219 1906 219 
Q 2384 219 2661 495 
Q 2938 772 2938 1253 
Q 2938 1803 2653 2086 
Q 2369 2369 1819 2369 
L 1522 2369 
L 1522 2688 
L 1678 2688 
Q 2225 2688 2498 2914 
Q 2772 3141 2772 3597 
Q 2772 4006 2547 4223 
Q 2322 4441 1900 4441 
Q 1478 4441 1245 4241 
Q 1013 4041 972 3647 
L 622 3647 
L 622 4469 
z
" transform="scale(0.015625)"/>
     </defs>
     <use xlink:href="#DejaVuSerif-4d"/>
     <use xlink:href="#DejaVuSerif-65" transform="translate(102.392578 0)"/>
     <use xlink:href="#DejaVuSerif-6d" transform="translate(161.572266 0)"/>
     <use xlink:href="#DejaVuSerif-6f" transform="translate(256.396484 0)"/>
     <use xlink:href="#DejaVuSerif-72" transform="translate(316.601562 0)"/>
     <use xlink:href="#DejaVuSerif-79" transform="translate(364.404297 0)"/>
     <use xlink:href="#DejaVuSerif-20" transform="translate(420.898438 0)"/>
     <use xlink:href="#DejaVuSerif-73" transform="translate(452.685547 0)"/>
     <use xlink:href="#DejaVuSerif-61" transform="translate(504.003906 0)"/>
     <use xlink:href="#DejaVuSerif-76" transform="translate(563.623047 0)"/>
     <use xlink:href="#DejaVuSerif-65" transform="translate(620.117188 0)"/>
     <use xlink:href="#DejaVuSerif-64" transform="translate(679.296875 0)"/>
     <use xlink:href="#DejaVuSerif-20" transform="translate(743.310547 0)"/>
     <use xlink:href="#DejaVuSerif-72" transform="translate(775.097656 0)"/>
     <use xlink:href="#DejaVuSerif-65" transform="translate(822.900391 0)"/>
     <use xlink:href="#DejaVuSerif-6c" transform="translate(882.080078 0)"/>
     <use xlink:href="#DejaVuSerif-61" transform="translate(914.0625 0)"/>
     <use xlink:href="#DejaVuSerif-74" transform="translate(973.681641 0)"/>
     <use xlink:href="#DejaVuSerif-69" transform="translate(1013.867188 0)"/>
     <use xlink:href="#DejaVuSerif-76" transform="translate(1045.849609 0)"/>
     <use xlink:href="#DejaVuSerif-65" transform="translate(1102.34375 0)"/>
     <use xlink:href="#DejaVuSerif-20" transform="translate(1161.523438 0)"/>
     <use xlink:href="#DejaVuSerif-74" transform="translate(1193.310547 0)"/>
     <use xlink:href="#DejaVuSerif-6f" transform="translate(1233.496094 0)"/>
     <use xlink:href="#DejaVuSerif-20" transform="translate(1293.701172 0)"/>
     <use xlink:href="#DejaVuSerif-68" transform="translate(1325.488281 0)"/>
     <use xlink:href="#DejaVuSerif-69" transform="translate(1389.892578 0)"/>
     <use xlink:href="#DejaVuSerif-67" transform="translate(1421.875 0)"/>
     <use xlink:href="#DejaVuSerif-68" transform="translate(1485.888672 0)"/>
     <use xlink:href="#DejaVuSerif-65" transform="translate(1550.292969 0)"/>
     <use xlink:href="#DejaVuSerif-73" transform="translate(1609.472656 0)"/>
     <use xlink:href="#DejaVuSerif-74" transform="translate(1660.791016 0)"/>
     <use xlink:href="#DejaVuSerif-20" transform="translate(1700.976562 0)"/>
     <use xlink:href="#DejaVuSerif-70" transform="translate(1732.763672 0)"/>
     <use xlink:href="#DejaVuSerif-72" transform="translate(1796.777344 0)"/>
     <use xlink:href="#DejaVuSerif-65" transform="translate(1844.580078 0)"/>
     <use xlink:href="#DejaVuSerif-64" transform="translate(1903.759766 0)"/>
     <use xlink:href="#DejaVuSerif-69" transform="translate(1967.773438 0)"/>
     <use xlink:href="#DejaVuSerif-63" transform="translate(1999.755859 0)"/>
     <use xlink:href="#DejaVuSerif-74" transform="translate(2055.761719 0)"/>
     <use xlink:href="#DejaVuSerif-6f" transform="translate(2095.947266 0)"/>
     <use xlink:href="#DejaVuSerif-72" transform="translate(2156.152344 0)"/>
     <use xlink:href="#DejaVuSerif-20" transform="translate(2203.955078 0)"/>
     <use xlink:href="#DejaVuSerif-28" transform="translate(2235.742188 0)"/>
     <use xlink:href="#DejaVuSerif-39" transform="translate(2274.755859 0)"/>
     <use xlink:href="#DejaVuSerif-2e" transform="translate(2338.378906 0)"/>
     <use xlink:href="#DejaVuSerif-30" transform="translate(2370.166016 0)"/>
     <use xlink:href="#DejaVuSerif-33" transform="translate(2433.789062 0)"/>
     <use xlink:href="#DejaVuSerif-20" transform="translate(2497.412109 0)"/>
     <use xlink:href="#DejaVuSerif-4d" transform="translate(2529.199219 0)"/>
     <use xlink:href="#DejaVuSerif-69" transform="translate(2631.591797 0)"/>
     <use xlink:href="#DejaVuSerif-6c" transform="translate(2663.574219 0)"/>
     <use xlink:href="#DejaVuSerif-6c" transform="translate(2695.556641 0)"/>
     <use xlink:href="#DejaVuSerif-69" transform="translate(2727.539062 0)"/>
     <use xlink:href="#DejaVuSerif-6f" transform="translate(2759.521484 0)"/>
     <use xlink:href="#DejaVuSerif-6e" transform="translate(2819.726562 0)"/>
     <use xlink:href="#DejaVuSerif-20" transform="translate(2884.130859 0)"/>
     <use xlink:href="#DejaVuSerif-47" transform="translate(2915.917969 0)"/>
     <use xlink:href="#DejaVuSerif-42" transform="translate(2995.800781 0)"/>
     <use xlink:href="#DejaVuSerif-b7" transform="translate(3069.287109 0)"/>
     <use xlink:href="#DejaVuSerif-68" transform="translate(3101.074219 0)"/>
     <use xlink:href="#DejaVuSerif-29" transform="translate(3165.478516 0)"/>
    </g>
   </g>
  </g>
 </g>
 <defs>
  <clipPath id="p9e42ad07b5">
   <rect x="161.430781" y="21.558281" width="389.135" height="344.955"/>
  </clipPath>
  <clipPath id="pf254f6778c">
   <rect x="578.780781" y="21.558281" width="389.135" height="344.955"/>
  </clipPath>
 </defs>
</svg>
